<svg width="246" height="962" fill="none" xmlns="http://www.w3.org/2000/svg"><g filter="url(#filter0_d_31_4273)"><path fill="#fff" d="M0 2h242v1102H0z"/></g><g filter="url(#filter1_ii_31_4273)"><path fill-rule="evenodd" clip-rule="evenodd" d="M0 2h242v64H0V2z" fill="#F3F3F3"/></g><path d="M65.439 41.273h-1.523V39h-6.088v2.273H56.28l-.05-3.555h.742c.368-.356.663-.872.883-1.55.22-.68.361-1.45.425-2.31l.241-4.1h5.827v7.96h1.175l-.083 3.554zm-6.652-3.555h3.96v-6.665H60.05l-.152 2.602c-.115 1.74-.485 3.094-1.111 4.063zm13.215-.87h-3.58L67.673 39h-1.67l3.492-9.242h1.441L74.434 39h-1.676l-.756-2.152zm-3.129-1.295h2.679l-1.34-3.834-1.339 3.834zm8.252-5.795v7.96h2.818v-7.96h1.6v7.96h2.8v-7.96h1.599V39h-10.43v-9.242h1.613zm16.567 1.295h-4.259v2.24h1.892c.677 0 1.267.117 1.77.35.504.232.887.562 1.15.99.262.427.393.922.393 1.485 0 .863-.294 1.557-.882 2.082-.584.525-1.382.791-2.393.8h-3.536v-9.242h5.865v1.295zm-4.259 3.529v3.136h1.885c.542 0 .963-.146 1.264-.438.304-.296.457-.688.457-1.175 0-.465-.148-.833-.445-1.104-.296-.27-.706-.41-1.231-.419h-1.93zm13.971.038c0 .906-.156 1.701-.469 2.387-.314.681-.762 1.206-1.346 1.574-.58.364-1.249.546-2.006.546-.749 0-1.418-.182-2.006-.546-.584-.368-1.037-.89-1.358-1.568-.318-.677-.478-1.458-.483-2.342v-.52c0-.902.159-1.698.476-2.387.322-.69.773-1.217 1.352-1.58.584-.37 1.253-.553 2.006-.553.754 0 1.42.182 2 .546.584.36 1.034.88 1.352 1.561.317.677.478 1.467.482 2.368v.514zm-1.606-.482c0-1.024-.194-1.81-.584-2.355-.385-.546-.933-.82-1.644-.82-.694 0-1.237.274-1.631.82-.39.541-.588 1.31-.597 2.304v.533c0 1.016.197 1.8.59 2.355.398.554.948.832 1.651.832.711 0 1.257-.271 1.638-.813.385-.541.577-1.333.577-2.374v-.482zm4.812 1.428V39h-1.606v-9.242h3.536c1.032 0 1.851.268 2.456.806.609.537.914 1.248.914 2.133 0 .905-.298 1.61-.895 2.113-.592.504-1.424.756-2.494.756h-1.911zm0-1.289h1.93c.571 0 1.007-.133 1.307-.4.301-.27.451-.66.451-1.168 0-.499-.152-.897-.457-1.193-.305-.3-.724-.455-1.257-.463h-1.974v3.224zm13.698 6.995h-1.523V39h-6.088v2.273h-1.549l-.05-3.555h.742c.368-.356.663-.872.883-1.55.22-.68.361-1.45.425-2.31l.241-4.1h5.827v7.96h1.175l-.083 3.554zm-6.652-3.554h3.961v-6.665h-2.698l-.152 2.602c-.115 1.74-.485 3.094-1.111 4.063z" fill="#20C05D"/><path fill-rule="evenodd" clip-rule="evenodd" d="M29 31v-6h8v6h-8zm8 12h-8V33h8v10zm-18 0h8v-6h-8v6zm8-8h-8V25h8v10z" fill="#30BF60"/><path fill="#fff" d="M0 66h240v56H0z"/><path d="M64.252 99h-1.6v-7.947h-4.069V99h-1.6v-9.242h7.269V99zm9.318-4.38c0 .906-.156 1.701-.47 2.387-.313.681-.761 1.206-1.345 1.574-.58.364-1.248.546-2.006.546-.749 0-1.418-.182-2.006-.546-.584-.368-1.037-.89-1.358-1.568-.318-.677-.478-1.458-.483-2.342v-.52c0-.902.159-1.697.476-2.387.322-.69.773-1.217 1.353-1.58.584-.37 1.252-.553 2.005-.553.754 0 1.42.182 2 .546.584.36 1.034.88 1.352 1.561.317.677.478 1.467.482 2.368v.514zm-1.606-.482c0-1.024-.194-1.81-.584-2.355-.385-.546-.933-.82-1.644-.82-.694 0-1.237.274-1.631.82-.39.541-.588 1.31-.597 2.304v.533c0 1.016.197 1.8.59 2.355.398.555.948.832 1.651.832.711 0 1.257-.271 1.638-.813.385-.541.577-1.333.577-2.374v-.482zm4.844-4.38v7.96h2.818v-7.96h1.6v7.96h2.799v-7.96h1.6V99h-10.43v-9.242h1.613zm14.053 4.83l1.854-4.83h1.784l-3.219 7.668-.292.577c-.423.754-1.108 1.13-2.056 1.13l-.66-.038.012-1.27c.102.018.282.026.54.026.457 0 .778-.195.965-.584l.33-.78-3.162-6.73h1.753l2.151 4.831zm7.599.451h-1.092V99h-1.6v-9.242h1.6v3.885h.882l2.717-3.885h1.968l-3.174 4.424L103.214 99h-1.93l-2.825-3.96zM114.651 99h-1.599v-7.947h-4.069V99h-1.6v-9.242h7.268V99zm9.319-4.38c0 .906-.157 1.701-.47 2.387-.313.681-.762 1.206-1.346 1.574-.579.364-1.248.546-2.006.546-.749 0-1.417-.182-2.005-.546-.584-.368-1.037-.89-1.359-1.568-.317-.677-.478-1.458-.482-2.342v-.52c0-.902.158-1.697.476-2.387.321-.69.772-1.217 1.352-1.58.584-.37 1.252-.553 2.006-.553.753 0 1.419.182 1.999.546.584.36 1.035.88 1.352 1.561.318.677.478 1.467.483 2.368v.514zm-1.606-.482c0-1.024-.195-1.81-.584-2.355-.385-.546-.933-.82-1.644-.82-.694 0-1.238.274-1.632.82-.389.541-.588 1.31-.596 2.304v.533c0 1.016.196 1.8.59 2.355.398.555.948.832 1.65.832.711 0 1.257-.271 1.638-.813.385-.541.578-1.333.578-2.374v-.482zm14.942 7.134h-1.523V99h-6.088v2.272h-1.549l-.05-3.554h.742c.369-.356.663-.872.883-1.55.22-.68.361-1.45.425-2.31l.241-4.1h5.827v7.96h1.175l-.083 3.554zm-6.652-3.554h3.961v-6.665h-2.698l-.152 2.602c-.115 1.74-.485 3.094-1.111 4.063zm15.164-3.098c0 .906-.156 1.701-.469 2.387-.314.681-.762 1.206-1.346 1.574-.58.364-1.248.546-2.006.546-.749 0-1.418-.182-2.006-.546-.584-.368-1.037-.89-1.358-1.568-.318-.677-.478-1.458-.483-2.342v-.52c0-.902.159-1.697.476-2.387.322-.69.773-1.217 1.352-1.58.584-.37 1.253-.553 2.006-.553.754 0 1.42.182 2 .546.584.36 1.035.88 1.352 1.561.317.677.478 1.467.482 2.368v.514zm-1.606-.482c0-1.024-.194-1.81-.584-2.355-.385-.546-.933-.82-1.644-.82-.694 0-1.237.274-1.631.82-.389.541-.588 1.31-.597 2.304v.533c0 1.016.197 1.8.591 2.355.397.555.948.832 1.65.832.711 0 1.257-.271 1.638-.813.385-.541.577-1.333.577-2.374v-.482zm10.258 1.853c-.093.986-.457 1.756-1.092 2.31-.634.55-1.479.826-2.532.826-.737 0-1.386-.173-1.949-.52-.559-.352-.99-.849-1.295-1.492-.305-.643-.463-1.39-.476-2.241v-.863c0-.872.154-1.64.463-2.304.309-.665.751-1.177 1.327-1.537.58-.36 1.248-.54 2.006-.54 1.02 0 1.841.278 2.463.832.622.555.984 1.338 1.085 2.349h-1.599c-.077-.664-.271-1.143-.584-1.435-.309-.296-.764-.444-1.365-.444-.698 0-1.236.256-1.612.768-.373.508-.563 1.255-.572 2.24v.82c0 .998.178 1.76.533 2.285.36.525.885.787 1.575.787.63 0 1.104-.142 1.422-.425.317-.284.518-.756.603-1.416h1.599zm3.022-2.698h1.891c.677 0 1.268.117 1.771.35.504.232.887.562 1.149.99.263.427.394.922.394 1.485 0 .863-.294 1.558-.883 2.082-.584.525-1.381.791-2.393.8h-3.535v-9.242h1.606v3.535zm0 1.289v3.136h1.885c.542 0 .963-.146 1.263-.438.305-.296.457-.688.457-1.174 0-.466-.148-.834-.444-1.105-.296-.27-.707-.41-1.232-.419h-1.929zm13.666 1.416c-.093.981-.457 1.75-1.092 2.304-.634.55-1.477.825-2.526.825-.741 0-1.394-.173-1.961-.52-.563-.352-.999-.855-1.308-1.511-.305-.656-.459-1.422-.463-2.298v-.78c0-.877.154-1.647.463-2.311.309-.665.751-1.177 1.327-1.537.579-.36 1.25-.54 2.012-.54 1.028 0 1.851.282 2.469.845.622.563.984 1.344 1.086 2.342h-1.6c-.076-.66-.271-1.14-.584-1.44-.313-.301-.77-.451-1.371-.451-.681 0-1.208.243-1.581.73-.372.482-.575 1.168-.609 2.056h3.218v1.283h-3.224c.029.935.224 1.646.584 2.132.363.483.878.724 1.542.724.622 0 1.092-.142 1.409-.425.318-.288.519-.764.603-1.428h1.606z" fill="#1A1A1A"/><path fill-rule="evenodd" clip-rule="evenodd" d="M32 87h-6v2h6v-2zm0 3h-8v2h8v-2zm0 3h-8v2h8v-2z" fill="#757575"/><path fill-rule="evenodd" clip-rule="evenodd" d="M23 86h10v10h-1a1 1 0 00-1 1v1h-6v-1a1 1 0 00-1-1h-1V86zm13 10h-1V85a1 1 0 00-1-1H22a1 1 0 00-1 1v11h-1a1 1 0 00-1 1v5c0 1.103.897 2 2 2h14c1.103 0 2-.897 2-2v-5a1 1 0 00-1-1z" fill="#757575"/><path fill="#fff" d="M0 122h240v56H0z"/><path d="M59.022 145.758l2.666 7.084 2.66-7.084h2.075V155h-1.6v-3.047l.159-4.075-2.73 7.122h-1.149l-2.723-7.116.16 4.069V155h-1.6v-9.242h2.082zm16.681 4.862c0 .906-.157 1.701-.47 2.387-.313.681-.761 1.206-1.345 1.574-.58.364-1.249.546-2.006.546-.75 0-1.418-.182-2.006-.546-.584-.368-1.037-.891-1.358-1.568-.318-.677-.479-1.458-.483-2.342v-.521c0-.901.159-1.697.476-2.386.322-.69.773-1.217 1.352-1.581.584-.368 1.253-.552 2.006-.552.753 0 1.42.182 2 .546.584.359 1.034.88 1.352 1.561.317.677.478 1.467.482 2.368v.514zm-1.606-.482c0-1.024-.194-1.809-.584-2.355-.385-.546-.933-.819-1.644-.819-.694 0-1.238.273-1.631.819-.39.541-.588 1.309-.597 2.304v.533c0 1.016.197 1.801.59 2.355.398.554.948.832 1.65.832.712 0 1.258-.271 1.638-.813.386-.542.578-1.333.578-2.374v-.482zM84.641 155h-1.6v-4.107h-4.132V155h-1.606v-9.242h1.606v3.846h4.132v-3.846h1.6V155zm3.599 0h-1.6v-9.242h1.6V155zm8.461-7.947H93.82V155h-1.593v-7.947H89.37v-1.295h7.33v1.295zm8.417 3.567c0 .906-.156 1.701-.47 2.387-.313.681-.761 1.206-1.345 1.574-.58.364-1.249.546-2.006.546-.749 0-1.418-.182-2.006-.546-.584-.368-1.037-.891-1.358-1.568-.318-.677-.479-1.458-.483-2.342v-.521c0-.901.159-1.697.476-2.386.322-.69.773-1.217 1.352-1.581.584-.368 1.253-.552 2.006-.552.753 0 1.42.182 2 .546.584.359 1.034.88 1.352 1.561.317.677.478 1.467.482 2.368v.514zm-1.606-.482c0-1.024-.194-1.809-.584-2.355-.385-.546-.933-.819-1.644-.819-.694 0-1.238.273-1.631.819-.39.541-.588 1.309-.597 2.304v.533c0 1.016.197 1.801.59 2.355.398.554.948.832 1.651.832.711 0 1.257-.271 1.638-.813.385-.542.577-1.333.577-2.374v-.482zm4.812 1.428V155h-1.606v-9.242h3.535c1.033 0 1.852.269 2.457.806.609.537.914 1.248.914 2.133 0 .905-.298 1.61-.895 2.114-.592.503-1.424.755-2.495.755h-1.91zm0-1.289h1.929c.572 0 1.008-.133 1.308-.4.3-.27.451-.66.451-1.168 0-.499-.153-.897-.457-1.193-.305-.3-.724-.455-1.257-.463h-1.974v3.224zm12.371-4.519h1.606V155h-1.606v-6.583L116.639 155h-1.606v-9.242h1.606v6.589l4.056-6.589zM131.562 155h-1.599v-4.107h-4.132V155h-1.606v-9.242h1.606v3.846h4.132v-3.846h1.599V155zm7.814-7.947h-4.265V155h-1.6v-9.242h5.865v1.295z" fill="#1A1A1A"/><path fill-rule="evenodd" clip-rule="evenodd" d="M28 140.5c-4.86 0-9.22 3-11 7.5 2.39 6.08 9.25 9.06 15.33 6.67 3.05-1.2 5.47-3.61 6.67-6.67-1.78-4.5-6.14-7.5-11-7.5zm-5 7.5a5 5 0 1010 0 5 5 0 00-10 0zm2 0a3 3 0 116 0 3 3 0 01-6 0zm0 10h-2v2h2v-2zm4 0v2h-2v-2h2zm4 0h-2v2h2v-2z" fill="#757575"/><path fill="#fff" d="M0 178h240v56H0z"/><path d="M59.022 201.758l2.666 7.084 2.66-7.084h2.075V211h-1.6v-3.047l.159-4.075-2.73 7.122h-1.149l-2.723-7.116.16 4.069V211h-1.6v-9.242h2.082zm16.681 4.862c0 .906-.157 1.701-.47 2.387-.313.681-.761 1.206-1.345 1.574-.58.364-1.249.546-2.006.546-.75 0-1.418-.182-2.006-.546-.584-.368-1.037-.891-1.358-1.568-.318-.677-.479-1.458-.483-2.342v-.521c0-.901.159-1.697.476-2.386.322-.69.773-1.217 1.352-1.581.584-.368 1.253-.552 2.006-.552.753 0 1.42.182 2 .546.584.359 1.034.88 1.352 1.561.317.677.478 1.467.482 2.368v.514zm-1.606-.482c0-1.024-.194-1.809-.584-2.355-.385-.546-.933-.819-1.644-.819-.694 0-1.238.273-1.631.819-.39.541-.588 1.309-.597 2.304v.533c0 1.016.197 1.801.59 2.355.398.554.948.832 1.65.832.712 0 1.258-.271 1.638-.813.386-.542.578-1.333.578-2.374v-.482zm4.9 4.862h-1.6v-9.242h1.6V211zm-3.046-10.683c0-.212.072-.389.216-.533.14-.144.334-.216.584-.216.25 0 .446.072.59.216a.723.723 0 01.216.533.725.725 0 01-.216.533c-.144.144-.34.216-.59.216-.25 0-.445-.072-.585-.216a.725.725 0 01-.215-.533zm2.9.006c0-.211.07-.389.21-.533.144-.144.34-.216.59-.216.25 0 .447.072.59.216a.725.725 0 01.216.533.72.72 0 01-.215.533c-.144.144-.341.216-.59.216-.25 0-.447-.072-.591-.216a.733.733 0 01-.21-.533zm8.094 6.716h-1.092V211h-1.6v-9.242h1.6v3.885h.882l2.717-3.885h1.968l-3.174 4.424L91.7 211h-1.93l-2.824-3.961zm12.816-.419c0 .906-.157 1.701-.47 2.387-.313.681-.762 1.206-1.346 1.574-.58.364-1.248.546-2.005.546-.75 0-1.418-.182-2.006-.546-.584-.368-1.037-.891-1.359-1.568-.317-.677-.478-1.458-.482-2.342v-.521c0-.901.158-1.697.476-2.386.322-.69.772-1.217 1.352-1.581.584-.368 1.252-.552 2.006-.552.753 0 1.42.182 2 .546.583.359 1.034.88 1.351 1.561.318.677.478 1.467.483 2.368v.514zm-1.606-.482c0-1.024-.195-1.809-.584-2.355-.385-.546-.933-.819-1.644-.819-.694 0-1.238.273-1.632.819-.389.541-.588 1.309-.596 2.304v.533c0 1.016.197 1.801.59 2.355.398.554.948.832 1.65.832.711 0 1.257-.271 1.638-.813.385-.542.578-1.333.578-2.374v-.482zM108.698 211h-1.599v-4.107h-4.133V211h-1.606v-9.242h1.606v3.846h4.133v-3.846h1.599V211zm8.392-7.947h-2.882V211h-1.593v-7.947h-2.857v-1.295h7.332v1.295zm2.825 4.513V211h-1.606v-9.242h3.535c1.033 0 1.852.269 2.457.806.609.537.914 1.248.914 2.133 0 .905-.298 1.61-.895 2.114-.593.503-1.424.755-2.495.755h-1.91zm0-1.289h1.929c.572 0 1.007-.133 1.308-.4.3-.27.451-.66.451-1.168 0-.499-.153-.897-.457-1.193-.305-.3-.724-.455-1.257-.463h-1.974v3.224zm10.752 2.571h-3.58l-.749 2.152h-1.669l3.491-9.242h1.441l3.498 9.242h-1.676l-.756-2.152zm-3.129-1.295h2.679l-1.34-3.834-1.339 3.834zm12.524-4.5h-4.266V211h-1.599v-9.242h5.865v1.295zm6.741 3.821h-3.796v2.844h4.437V211h-6.043v-9.242h5.999v1.295h-4.393v2.551h3.796v1.27zM156.09 211h-1.6v-4.107h-4.132V211h-1.606v-9.242h1.606v3.846h4.132v-3.846h1.6V211zm8.391-7.947H161.6V211h-1.594v-7.947h-2.856v-1.295h7.331v1.295zm6.881-1.295h1.606V211h-1.606v-6.583L167.306 211H165.7v-9.242h1.606v6.589l4.056-6.589z" fill="#1A1A1A"/><path fill-rule="evenodd" clip-rule="evenodd" d="M22 200a3 3 0 110 6 3 3 0 010-6zm0 8c2 0 6 1 6 3v2H16v-2c0-2 4-3 6-3zm9.147-1.073l-.674 3.927L34 209l3.527 1.854-.674-3.927 2.853-2.781-3.943-.573L34 200l-1.763 3.573-3.943.573 2.853 2.781z" fill="#757575"/><path fill="#fff" d="M0 234h240v56H0z"/><path d="M64.252 267h-1.6v-7.947h-4.069V267h-1.6v-9.242h7.269V267zm9.318-4.38c0 .906-.156 1.701-.47 2.387-.313.681-.761 1.206-1.345 1.574-.58.364-1.248.546-2.006.546-.749 0-1.418-.182-2.006-.546-.584-.368-1.037-.891-1.358-1.568-.318-.677-.478-1.458-.483-2.342v-.521c0-.901.159-1.697.476-2.386.322-.69.773-1.217 1.353-1.581.584-.368 1.252-.552 2.005-.552.754 0 1.42.182 2 .546.584.359 1.034.88 1.352 1.561.317.677.478 1.467.482 2.368v.514zm-1.606-.482c0-1.024-.194-1.809-.584-2.355-.385-.546-.933-.819-1.644-.819-.694 0-1.237.273-1.631.819-.39.541-.588 1.309-.597 2.304v.533c0 1.016.197 1.801.59 2.355.398.554.948.832 1.651.832.711 0 1.257-.271 1.638-.813.385-.542.577-1.333.577-2.374v-.482zm4.844-4.38v7.96h2.818v-7.96h1.6v7.96h2.799v-7.96h1.6V267h-10.43v-9.242h1.613zm14.053 4.83l1.854-4.83h1.784l-3.219 7.668-.292.577c-.423.754-1.108 1.13-2.056 1.13l-.66-.038.012-1.269c.102.017.282.025.54.025.457 0 .778-.195.965-.584l.33-.781-3.162-6.728h1.753l2.151 4.83zm7.599.451h-1.092V267h-1.6v-9.242h1.6v3.885h.882l2.717-3.885h1.968l-3.174 4.424 3.453 4.818h-1.93l-2.825-3.961zm13.501-2.761c0-.415-.157-.745-.47-.99-.313-.246-.738-.369-1.276-.369-.461 0-.846.123-1.155.369a1.136 1.136 0 00-.463.939h-1.6c0-.504.14-.952.419-1.346.279-.393.667-.698 1.162-.914a3.987 3.987 0 011.637-.33c1.058 0 1.879.231 2.463.692.588.461.883 1.107.883 1.936 0 .419-.127.804-.381 1.155-.254.352-.61.629-1.067.832.517.178.91.449 1.181.812.275.36.413.809.413 1.346 0 .83-.318 1.49-.953 1.981-.634.486-1.481.73-2.539.73a4.35 4.35 0 01-1.771-.35c-.524-.232-.92-.55-1.187-.952a2.476 2.476 0 01-.393-1.383h1.599c0 .397.165.734.495 1.009.331.271.75.406 1.257.406.567 0 1.022-.133 1.365-.4.347-.266.521-.613.521-1.041 0-.52-.153-.897-.457-1.13-.301-.237-.743-.355-1.327-.355h-1.086v-1.27h1.029c1.134 0 1.701-.459 1.701-1.377zm3.237 6.722v-9.242h3.168c1.045 0 1.841.209 2.386.628.546.419.819 1.043.819 1.873 0 .423-.114.804-.342 1.142-.229.339-.563.601-1.003.787.499.136.884.392 1.155.769.275.372.412.821.412 1.345 0 .868-.279 1.534-.837 2-.555.465-1.35.698-2.387.698h-3.371zm1.606-4.17v2.888h1.784c.503 0 .897-.125 1.181-.375.283-.249.425-.596.425-1.041 0-.96-.491-1.451-1.473-1.472h-1.917zm0-1.181h1.574c.5 0 .889-.112 1.168-.337.284-.228.426-.55.426-.964 0-.457-.132-.787-.394-.991-.258-.203-.662-.304-1.212-.304h-1.562v2.596zm7.351-3.606l-.165 2.482h-1.01v-3.275h1.175v.793zm5.998 8.957v-3.453h-1.79L126.58 267h-1.721l2.063-3.929c-1.075-.508-1.612-1.34-1.612-2.495 0-.884.29-1.572.87-2.063.584-.495 1.396-.747 2.437-.755h3.142V267h-1.606zm-3.243-6.354c0 .521.146.927.438 1.219.292.292.73.438 1.314.438h1.491v-3.25h-1.491c-.593 0-1.033.141-1.321.425-.287.284-.431.673-.431 1.168zm11.381-.368c0-.415-.157-.745-.47-.99-.313-.246-.738-.369-1.276-.369-.461 0-.846.123-1.155.369a1.136 1.136 0 00-.463.939h-1.6c0-.504.14-.952.419-1.346.279-.393.667-.698 1.162-.914a3.987 3.987 0 011.637-.33c1.058 0 1.879.231 2.463.692.589.461.883 1.107.883 1.936 0 .419-.127.804-.381 1.155-.254.352-.61.629-1.067.832.517.178.91.449 1.181.812.275.36.413.809.413 1.346 0 .83-.318 1.49-.953 1.981-.634.486-1.481.73-2.539.73a4.35 4.35 0 01-1.771-.35c-.524-.232-.92-.55-1.187-.952a2.476 2.476 0 01-.393-1.383h1.599c0 .397.165.734.496 1.009.33.271.749.406 1.256.406.567 0 1.022-.133 1.365-.4.347-.266.521-.613.521-1.041 0-.52-.153-.897-.457-1.13-.301-.237-.743-.355-1.327-.355h-1.085v-1.27h1.028c1.134 0 1.701-.459 1.701-1.377zm5.973 2.761h-1.092V267h-1.599v-9.242h1.599v3.885h.883l2.716-3.885h1.968l-3.174 4.424 3.454 4.818h-1.93l-2.825-3.961zm7.338 3.961h-1.6v-9.242h1.6V267zm1.974 0v-9.242h3.168c1.045 0 1.84.209 2.386.628.546.419.819 1.043.819 1.873 0 .423-.114.804-.343 1.142-.228.339-.562.601-1.002.787.499.136.884.392 1.155.769.275.372.412.821.412 1.345 0 .868-.279 1.534-.838 2-.554.465-1.349.698-2.386.698h-3.371zm1.606-4.17v2.888h1.784c.503 0 .897-.125 1.18-.375.284-.249.426-.596.426-1.041 0-.96-.491-1.451-1.473-1.472h-1.917zm0-1.181h1.574c.5 0 .889-.112 1.168-.337.284-.228.426-.55.426-.964 0-.457-.132-.787-.394-.991-.258-.203-.662-.304-1.212-.304h-1.562v2.596z" fill="#1A1A1A"/><path fill-rule="evenodd" clip-rule="evenodd" d="M37 265h-2v-1c0-1.654-1.346-3-3-3h-3v-2h2a1 1 0 001-1v-5a1 1 0 00-1-1h-6a1 1 0 00-1 1v5a1 1 0 001 1h2v2h-3c-1.654 0-3 1.346-3 3v1h-2a1 1 0 00-1 1v5a1 1 0 001 1h6a1 1 0 001-1v-5a1 1 0 00-1-1h-2v-1c0-.551.449-1 1-1h8c.551 0 1 .449 1 1v1h-2a1 1 0 00-1 1v5a1 1 0 001 1h6a1 1 0 001-1v-5a1 1 0 00-1-1z" fill="#757575"/><path fill="#fff" d="M0 290h240v56H0z"/><path d="M58.545 319.566V323H56.94v-9.242h3.535c1.033 0 1.852.269 2.457.806.609.537.914 1.248.914 2.133 0 .905-.299 1.61-.895 2.114-.593.503-1.424.755-2.495.755h-1.91zm0-1.289h1.93c.571 0 1.007-.133 1.308-.4.3-.27.45-.66.45-1.168 0-.499-.152-.897-.457-1.193-.304-.3-.723-.455-1.257-.463h-1.974v3.224zm12.372-4.519h1.606V323h-1.606v-6.583L66.861 323h-1.606v-9.242h1.606v6.589l4.056-6.589zM81.784 323h-1.6v-4.107h-4.132V323h-1.606v-9.242h1.606v3.846h4.133v-3.846h1.6V323zm4.64-3.961h-1.092V323h-1.6v-9.242h1.6v3.885h.883l2.717-3.885h1.967l-3.173 4.424L91.179 323h-1.93l-2.825-3.961zm11.305-5.281h1.606V323H97.73v-6.583L93.672 323h-1.606v-9.242h1.606v6.589l4.056-6.589z" fill="#1A1A1A"/><path fill-rule="evenodd" clip-rule="evenodd" d="M35.327 316.797c0-4.299-3.498-7.797-7.796-7.797h-.866v8.663h8.662v-.866zM24.93 318.53v-7.744l-.107.014A7.801 7.801 0 0018 318.529c0 4.3 3.498 7.797 7.797 7.797a7.79 7.79 0 005.002-1.82l.058-.049-5.927-5.927zm9.231 6.992l-6.123-6.126h9.02c0 2.082-.81 4.039-2.283 5.513l-.614.613z" fill="#737373"/><path fill="#fff" d="M0 346h240v56H0z"/><path d="M63.992 375.991c-.093.986-.457 1.756-1.092 2.311-.635.55-1.48.825-2.533.825-.736 0-1.386-.174-1.948-.521-.56-.351-.99-.848-1.295-1.491-.305-.643-.464-1.39-.477-2.241v-.863c0-.872.155-1.64.464-2.304.309-.665.751-1.177 1.327-1.537.58-.359 1.248-.539 2.005-.539 1.02 0 1.841.277 2.463.831.622.555.984 1.338 1.086 2.349h-1.6c-.076-.664-.27-1.143-.584-1.435-.309-.296-.764-.444-1.365-.444-.698 0-1.235.256-1.612.768-.372.508-.563 1.255-.571 2.241v.819c0 .998.178 1.76.533 2.285.36.525.884.787 1.574.787.63 0 1.105-.142 1.422-.425.317-.284.518-.756.603-1.416h1.6zM72.745 379h-1.6v-7.947h-4.068V379h-1.6v-9.242h7.268V379zm7.605-9.242h1.606V379H80.35v-6.583L76.294 379h-1.606v-9.242h1.605v6.589l4.057-6.589zm10.581 6.233c-.093.986-.457 1.756-1.092 2.311-.634.55-1.479.825-2.532.825-.737 0-1.386-.174-1.95-.521-.558-.351-.99-.848-1.294-1.491-.305-.643-.463-1.39-.476-2.241v-.863c0-.872.154-1.64.463-2.304.31-.665.751-1.177 1.327-1.537.58-.359 1.248-.539 2.006-.539 1.02 0 1.84.277 2.463.831.622.555.984 1.338 1.085 2.349h-1.6c-.076-.664-.27-1.143-.583-1.435-.31-.296-.764-.444-1.365-.444-.698 0-1.236.256-1.612.768-.373.508-.563 1.255-.572 2.241v.819c0 .998.178 1.76.533 2.285.36.525.885.787 1.575.787.63 0 1.104-.142 1.421-.425.318-.284.519-.756.604-1.416h1.6zm8.817-1.371c0 .906-.157 1.701-.47 2.387-.313.681-.761 1.206-1.345 1.574-.58.364-1.249.546-2.006.546-.75 0-1.418-.182-2.006-.546-.584-.368-1.037-.891-1.359-1.568-.317-.677-.478-1.458-.482-2.342v-.521c0-.901.159-1.697.476-2.386.322-.69.773-1.217 1.352-1.581.584-.368 1.253-.552 2.006-.552.753 0 1.42.182 2 .546.584.359 1.034.88 1.352 1.561.317.677.478 1.467.482 2.368v.514zm-1.606-.482c0-1.024-.195-1.809-.584-2.355-.385-.546-.933-.819-1.644-.819-.694 0-1.238.273-1.631.819-.39.541-.588 1.309-.597 2.304v.533c0 1.016.197 1.801.59 2.355.398.554.948.832 1.65.832.712 0 1.258-.271 1.638-.813.386-.542.578-1.333.578-2.374v-.482zm5.941.901h-1.091V379h-1.6v-9.242h1.6v3.885h.882l2.717-3.885h1.968l-3.174 4.424 3.453 4.818h-1.93l-2.825-3.961zm10.487.527V379h-1.606v-9.242h3.536c1.032 0 1.851.269 2.456.806.609.537.914 1.248.914 2.133 0 .905-.298 1.61-.895 2.114-.592.503-1.424.755-2.495.755h-1.91zm0-1.289h1.93c.571 0 1.007-.133 1.307-.4.301-.27.451-.66.451-1.168 0-.499-.153-.897-.457-1.193-.305-.3-.724-.455-1.257-.463h-1.974v3.224zm12.111.597h-3.796v2.844h4.437V379h-6.043v-9.242h5.999v1.295h-4.393v2.551h3.796v1.27zm9.02 1.124c-.093.981-.457 1.749-1.092 2.304-.634.55-1.477.825-2.526.825-.741 0-1.394-.174-1.961-.521-.563-.351-.999-.854-1.308-1.51-.305-.656-.459-1.422-.463-2.298v-.781c0-.876.154-1.646.463-2.31.309-.665.751-1.177 1.327-1.537.579-.359 1.25-.539 2.012-.539 1.028 0 1.851.281 2.469.844.622.563.984 1.344 1.086 2.342h-1.6c-.076-.66-.271-1.14-.584-1.441-.313-.3-.77-.45-1.371-.45-.681 0-1.208.243-1.581.73-.372.482-.575 1.168-.609 2.056h3.218v1.283h-3.224c.029.935.224 1.646.584 2.132.363.483.878.724 1.542.724.622 0 1.092-.142 1.409-.425.318-.288.519-.764.603-1.428h1.606zm8.677-.007c-.093.986-.457 1.756-1.091 2.311-.635.55-1.479.825-2.533.825-.736 0-1.386-.174-1.949-.521-.558-.351-.99-.848-1.295-1.491-.304-.643-.463-1.39-.476-2.241v-.863c0-.872.155-1.64.464-2.304.308-.665.751-1.177 1.326-1.537.58-.359 1.249-.539 2.006-.539 1.02 0 1.841.277 2.463.831.622.555.984 1.338 1.085 2.349h-1.599c-.076-.664-.271-1.143-.584-1.435-.309-.296-.764-.444-1.365-.444-.698 0-1.236.256-1.612.768-.373.508-.563 1.255-.572 2.241v.819c0 .998.178 1.76.534 2.285.359.525.884.787 1.574.787.63 0 1.104-.142 1.422-.425.317-.284.518-.756.603-1.416h1.599zm7.929-4.938h-2.882V379h-1.593v-7.947h-2.857v-1.295h7.332v1.295zm2.824 4.513V379h-1.606v-9.242h3.536c1.033 0 1.851.269 2.457.806.609.537.914 1.248.914 2.133 0 .905-.299 1.61-.895 2.114-.593.503-1.424.755-2.495.755h-1.911zm0-1.289h1.93c.571 0 1.007-.133 1.308-.4.3-.27.45-.66.45-1.168 0-.499-.152-.897-.457-1.193-.304-.3-.723-.455-1.257-.463h-1.974v3.224zm8.405 4.723h-1.6v-9.242h1.6V379zm1.974 0v-9.242h3.167c1.045 0 1.841.209 2.387.628.546.419.819 1.043.819 1.873 0 .423-.114.804-.343 1.142-.228.339-.563.601-1.003.787.499.136.885.392 1.155.769.275.372.413.821.413 1.345 0 .868-.279 1.534-.838 2-.554.465-1.35.698-2.387.698h-3.37zm1.606-4.17v2.888h1.783c.504 0 .898-.125 1.181-.375.284-.249.425-.596.425-1.041 0-.96-.491-1.451-1.472-1.472h-1.917zm0-1.181h1.574c.499 0 .889-.112 1.168-.337.283-.228.425-.55.425-.964 0-.457-.131-.787-.393-.991-.258-.203-.663-.304-1.213-.304h-1.561v2.596z" fill="#1A1A1A"/><path fill-rule="evenodd" clip-rule="evenodd" d="M19.02 367h5.949v6H19.02v-6zm1.98 2v2h2v-2h-2zm17 2v-2h-9v2h9zm0 6v2h-9v-2h9zm-20 1.5l3.59 3.5 5.212-5.082-1.373-1.483-3.84 3.735-2.143-2.08L18 378.5z" fill="#757575"/><g filter="url(#filter2_i_31_4273)"><path fill="#fff" d="M0 402h240v56H0z"/></g><path d="M58.634 435h-1.6v-9.242h1.6V435zm9.312 0h-1.6v-4.107h-4.132V435h-1.606v-9.242h1.606v3.846h4.133v-3.846h1.6V435zm6.945-8.366h.14c.71 0 1.356.161 1.935.482a3.357 3.357 0 011.359 1.346c.326.58.489 1.231.489 1.955 0 .719-.163 1.367-.49 1.942a3.39 3.39 0 01-1.345 1.333 3.933 3.933 0 01-1.923.483h-.165v1.206h-1.543v-1.206h-.152a4.018 4.018 0 01-1.949-.476 3.418 3.418 0 01-1.358-1.34c-.318-.571-.476-1.214-.476-1.929 0-.724.16-1.376.482-1.955a3.4 3.4 0 011.352-1.352 3.906 3.906 0 011.949-.489h.152v-1.257h1.543v1.257zm-1.695 1.288c-.711 0-1.268.223-1.67.667-.397.444-.596 1.058-.596 1.841 0 .761.199 1.362.596 1.802.398.436.961.654 1.689.654h.133v-4.964h-.152zm1.695 0v4.964h.152c.71 0 1.263-.222 1.657-.666.397-.445.596-1.046.596-1.803 0-.774-.199-1.384-.596-1.828-.394-.444-.952-.667-1.676-.667h-.133zm12.695 2.698c0 .906-.157 1.701-.47 2.387-.313.681-.761 1.206-1.346 1.574-.58.364-1.248.546-2.005.546-.75 0-1.418-.182-2.006-.546-.584-.368-1.037-.891-1.359-1.568-.317-.677-.478-1.458-.482-2.342v-.521c0-.901.159-1.697.476-2.386.322-.69.772-1.217 1.352-1.581.584-.368 1.253-.552 2.006-.552.753 0 1.42.182 2 .546.583.359 1.034.88 1.352 1.561.317.677.478 1.467.482 2.368v.514zm-1.606-.482c0-1.024-.195-1.809-.584-2.355-.385-.546-.933-.819-1.644-.819-.694 0-1.238.273-1.631.819-.39.541-.589 1.309-.597 2.304v.533c0 1.016.197 1.801.59 2.355.398.554.948.832 1.65.832.712 0 1.258-.271 1.638-.813.385-.542.578-1.333.578-2.374v-.482zm4.811 1.428V435h-1.605v-9.242h3.535c1.033 0 1.852.269 2.457.806.61.537.914 1.248.914 2.133 0 .905-.299 1.61-.895 2.114-.593.503-1.424.755-2.495.755h-1.91zm0-1.289h1.93c.572 0 1.007-.133 1.308-.4.3-.27.45-.66.45-1.168 0-.499-.152-.897-.457-1.193-.304-.3-.723-.455-1.256-.463H90.79v3.224zm8.792-4.519l2.666 7.084 2.66-7.084h2.075V435h-1.599v-3.047l.158-4.075-2.729 7.122h-1.149l-2.723-7.116.159 4.069V435h-1.6v-9.242h2.082zm14.593 7.09h-3.58l-.749 2.152h-1.669l3.491-9.242h1.441l3.497 9.242h-1.675l-.756-2.152zm-3.129-1.295h2.679l-1.34-3.834-1.339 3.834zm6.601-5.795h1.606v7.96h4.069v-7.96h1.606v7.947h1.117l-.127 3.523h-1.472V435h-6.799v-9.242zm11.42 9.242h-1.6v-9.242h1.6V435zm6.532 0v-3.453h-1.79L132.026 435h-1.72l2.063-3.929c-1.075-.508-1.613-1.34-1.613-2.495 0-.884.29-1.572.87-2.063.584-.495 1.396-.747 2.437-.755h3.143V435H135.6zm-3.244-6.354c0 .521.146.927.438 1.219.292.292.73.438 1.314.438h1.492v-3.25h-1.492c-.593 0-1.033.141-1.32.425-.288.284-.432.673-.432 1.168z" fill="#1A1A1A"/><path fill-rule="evenodd" clip-rule="evenodd" d="M18 430a10.002 10.002 0 1117.071 7.071A10.002 10.002 0 0118 430zm11-5v2h-2v-2h2zm0 4v6h-2v-6h2z" fill="#757575"/><g filter="url(#filter3_i_31_4273)"><path fill="#fff" d="M50 671h127v72H50z"/></g><defs><filter id="filter0_d_31_4273" x="-4" y="0" width="250" height="1110" filterUnits="userSpaceOnUse" color-interpolation-filters="sRGB"><feFlood flood-opacity="0" result="BackgroundImageFix"/><feColorMatrix in="SourceAlpha" values="0 0 0 0 0 0 0 0 0 0 0 0 0 0 0 0 0 0 127 0" result="hardAlpha"/><feOffset dy="2"/><feGaussianBlur stdDeviation="2"/><feColorMatrix values="0 0 0 0 0 0 0 0 0 0 0 0 0 0 0 0 0 0 0.117839 0"/><feBlend in2="BackgroundImageFix" result="effect1_dropShadow_31_4273"/><feBlend in="SourceGraphic" in2="effect1_dropShadow_31_4273" result="shape"/></filter><filter id="filter1_ii_31_4273" x="0" y="2" width="242" height="64" filterUnits="userSpaceOnUse" color-interpolation-filters="sRGB"><feFlood flood-opacity="0" result="BackgroundImageFix"/><feBlend in="SourceGraphic" in2="BackgroundImageFix" result="shape"/><feColorMatrix in="SourceAlpha" values="0 0 0 0 0 0 0 0 0 0 0 0 0 0 0 0 0 0 127 0" result="hardAlpha"/><feOffset dx="-4"/><feComposite in2="hardAlpha" operator="arithmetic" k2="-1" k3="1"/><feColorMatrix values="0 0 0 0 0.1875 0 0 0 0 0.75 0 0 0 0 0.375 0 0 0 1 0"/><feBlend in2="shape" result="effect1_innerShadow_31_4273"/><feColorMatrix in="SourceAlpha" values="0 0 0 0 0 0 0 0 0 0 0 0 0 0 0 0 0 0 127 0" result="hardAlpha"/><feOffset dy="-1"/><feComposite in2="hardAlpha" operator="arithmetic" k2="-1" k3="1"/><feColorMatrix values="0 0 0 0 0.899607 0 0 0 0 0.899607 0 0 0 0 0.899607 0 0 0 1 0"/><feBlend in2="effect1_innerShadow_31_4273" result="effect2_innerShadow_31_4273"/></filter><filter id="filter2_i_31_4273" x="0" y="402" width="240" height="56" filterUnits="userSpaceOnUse" color-interpolation-filters="sRGB"><feFlood flood-opacity="0" result="BackgroundImageFix"/><feBlend in="SourceGraphic" in2="BackgroundImageFix" result="shape"/><feColorMatrix in="SourceAlpha" values="0 0 0 0 0 0 0 0 0 0 0 0 0 0 0 0 0 0 127 0" result="hardAlpha"/><feOffset dy="1"/><feComposite in2="hardAlpha" operator="arithmetic" k2="-1" k3="1"/><feColorMatrix values="0 0 0 0 0.899607 0 0 0 0 0.899607 0 0 0 0 0.899607 0 0 0 1 0"/><feBlend in2="shape" result="effect1_innerShadow_31_4273"/></filter><filter id="filter3_i_31_4273" x="50" y="671" width="127" height="72" filterUnits="userSpaceOnUse" color-interpolation-filters="sRGB"><feFlood flood-opacity="0" result="BackgroundImageFix"/><feBlend in="SourceGraphic" in2="BackgroundImageFix" result="shape"/><feColorMatrix in="SourceAlpha" values="0 0 0 0 0 0 0 0 0 0 0 0 0 0 0 0 0 0 127 0" result="hardAlpha"/><feOffset dy="-1"/><feComposite in2="hardAlpha" operator="arithmetic" k2="-1" k3="1"/><feColorMatrix values="0 0 0 0 0.899607 0 0 0 0 0.899607 0 0 0 0 0.899607 0 0 0 1 0"/><feBlend in2="shape" result="effect1_innerShadow_31_4273"/></filter></defs></svg>