<svg width="24" height="24" viewBox="0 0 24 24" fill="none" xmlns="http://www.w3.org/2000/svg">
<path fill-rule="evenodd" clip-rule="evenodd" d="M12 24C18.6274 24 24 18.6274 24 12C24 5.37258 18.6274 0 12 0C5.37258 0 0 5.37258 0 12C0 18.6274 5.37258 24 12 24Z" fill="#3B5997"/>
<path d="M9.94636 7.94701V9.55001H8.69336V11.517H9.94636V17.341H12.5294V11.517H14.2584C14.2584 11.517 14.4194 10.572 14.4964 9.54301H12.5364V8.20601C12.5912 7.93738 12.8224 7.7409 13.0964 7.73001H14.5034V5.69301H12.5924C9.88336 5.68601 9.94636 7.65301 9.94636 7.94701Z" fill="white"/>
</svg>
