<svg width="32" height="32" viewBox="0 0 32 32" fill="none" xmlns="http://www.w3.org/2000/svg">
<path d="M12.6299 9.63757H19.0238V21.3458H12.6299V9.63757Z" fill="#FF5F00"/>
<path d="M13.0365 15.4917C13.0365 13.12 14.1268 10.9929 15.8269 9.6376C14.5888 8.63995 13.018 8.0376 11.3179 8.0376C7.27088 8.0376 4 11.3694 4 15.4917C4 19.5952 7.27088 22.9458 11.3179 22.9458C13.018 22.9458 14.5888 22.3435 15.8269 21.3458C14.1268 19.9717 13.0365 17.8635 13.0365 15.4917Z" fill="#EB001B"/>
<path fill-rule="evenodd" clip-rule="evenodd" d="M27.6541 15.4917C27.6541 19.5952 24.3832 22.9458 20.3362 22.9458C18.636 22.9458 17.0653 22.3435 15.8271 21.3458C17.5273 19.9905 18.6176 17.8635 18.6176 15.4917C18.6176 13.12 17.5273 10.9929 15.8271 9.6376C17.0653 8.63995 18.636 8.0376 20.3362 8.0376C24.3832 8.0376 27.6541 11.3694 27.6541 15.4917ZM26.9518 20.1035V19.8588H27.0442V19.8023H26.804V19.8588H26.8964V20.1035H26.9518ZM27.4323 19.8211V20.1035H27.3584V19.8776L27.2845 20.0658H27.229L27.1551 19.8776V20.1035H27.0997V19.8211H27.1736L27.266 20.0282L27.3584 19.8211H27.4323Z" fill="#F79E1B"/>
</svg>
