<svg width="24" height="24" viewBox="0 0 24 24" fill="none" xmlns="http://www.w3.org/2000/svg">
<path fill-rule="evenodd" clip-rule="evenodd" d="M12 24C18.6274 24 24 18.6274 24 12C24 5.37258 18.6274 0 12 0C5.37258 0 0 5.37258 0 12C0 18.6274 5.37258 24 12 24Z" fill="#0483BF"/>
<path fill-rule="evenodd" clip-rule="evenodd" d="M7.14076 16.9717H9.57307V9.66461H7.14076V16.9717ZM17.5577 10.3338C17.0463 9.77538 16.3706 9.49661 15.5306 9.49661C15.2205 9.49661 14.9398 9.53446 14.686 9.61015C14.4539 9.67609 14.2363 9.78506 14.0445 9.93138C13.87 10.0698 13.7306 10.1972 13.6281 10.3145C13.5303 10.4262 13.4343 10.5572 13.3411 10.7049V9.66461H10.9143L10.9217 10.0191C10.9263 10.2545 10.9291 10.9818 10.9291 12.2012C10.9291 13.4197 10.9235 15.0102 10.9143 16.9708H13.3401V12.8945C13.3401 12.6443 13.3669 12.4449 13.4205 12.2982C13.5238 12.0471 13.6798 11.8366 13.8894 11.6677C14.098 11.4978 14.3574 11.4129 14.6666 11.4129C15.0894 11.4129 15.4005 11.5588 15.5989 11.8514C15.7983 12.144 15.898 12.5483 15.898 13.0643V16.9717H18.3238V12.7846C18.3238 11.7083 18.0681 10.8905 17.5577 10.3338ZM8.37215 6.14954C7.96415 6.14954 7.63369 6.26769 7.37892 6.50677C7.12889 6.73932 6.99101 7.06821 7.00046 7.40954C7.00046 7.76861 7.12322 8.06861 7.36969 8.30954C7.6143 8.54954 7.93922 8.66954 8.34261 8.66954H8.35646C8.76999 8.66954 9.1023 8.54954 9.35615 8.30954C9.60907 8.06861 9.73276 7.76861 9.72815 7.40954C9.73285 7.06993 9.59687 6.74351 9.35246 6.50769C9.10692 6.26769 8.78015 6.14954 8.37215 6.14954Z" fill="white"/>
</svg>
