<svg width="56" height="56" viewBox="0 0 56 56" fill="none" xmlns="http://www.w3.org/2000/svg">
<g clip-path="url(#clip0_237_57)">
<path fill-rule="evenodd" clip-rule="evenodd" d="M45.562 21.0104C48.2891 21.3371 50.4105 23.663 50.4105 26.4766V26.8787C50.4105 29.6922 48.2891 32.0182 45.562 32.3448V46.4664C45.562 47.331 45.0011 48.0631 44.1663 48.2881C43.998 48.3333 43.829 48.3553 43.6627 48.3553C43.0047 48.3553 42.3912 48.0113 42.0444 47.4145C39.0613 42.2825 34.363 38.7746 28.08 36.9882C23.3288 35.6373 19.4083 35.8333 19.3693 35.8355C19.3114 35.8388 19.2539 35.836 19.1971 35.8302H17.9488L20.547 46.5142C20.8146 47.6152 20.5667 48.7576 19.8664 49.6485C19.1662 50.5393 18.1148 51.0502 16.9818 51.0502H14.8787C13.1808 51.0502 11.7147 49.8979 11.3135 48.2481L8.28341 35.7879C3.64295 35.3486 0 31.4312 0 26.6776C0 21.6309 4.10594 17.5249 9.15272 17.5249H19.1989C19.2556 17.5192 19.3128 17.5165 19.3703 17.5198C19.4082 17.5221 23.3288 17.7179 28.08 16.3671C34.3631 14.5807 39.0614 11.0728 42.0444 5.94069C42.4788 5.19333 43.3316 4.84245 44.1663 5.06722C45.0011 5.2922 45.562 6.02436 45.562 6.88897V21.0104ZM18.4213 47.0311L18.0758 45.6101H17.201C16.5969 45.6101 16.1072 45.1205 16.1072 44.5164C16.1072 43.9123 16.5969 43.4226 17.201 43.4226H17.5437L17.0019 41.1947H15.9472C15.3431 41.1947 14.8535 40.705 14.8535 40.1009C14.8535 39.4968 15.3431 39.0072 15.9472 39.0072H16.47L15.6975 35.8304H10.545L13.4391 47.7313C13.6011 48.3975 14.193 48.8628 14.8787 48.8628H16.9818C17.4393 48.8628 17.8639 48.6565 18.1465 48.2968C18.4294 47.9371 18.5294 47.4757 18.4213 47.0311ZM43.3743 31.2918V22.0634V7.95745C40.0965 13.055 35.0121 16.6869 28.6043 18.492C25.0566 19.4914 21.9919 19.6911 20.402 19.717V30.0952V33.6383C21.9917 33.6642 25.0563 33.8638 28.6043 34.8633C35.0122 36.6683 40.0965 40.3003 43.3743 45.3978V31.2918ZM45.5618 30.1325C47.078 29.8262 48.2228 28.4836 48.2228 26.8787V26.4766C48.2228 24.8716 47.0778 23.5291 45.5618 23.2228V30.1325ZM18.2145 33.6429V31V29.0014V19.7124H9.15272C5.31213 19.7124 2.1875 22.837 2.1875 26.6776C2.1875 30.5078 5.29539 33.6251 9.12166 33.6421C9.13205 33.6419 9.14233 33.6403 9.15272 33.6403H16.5564C16.5729 33.6403 16.5891 33.6413 16.6053 33.6422C16.6091 33.6424 16.6129 33.6427 16.6167 33.6429H18.2145Z" fill="#A8B4CA"/>
<path d="M50.7376 20.2712C51.0004 20.2712 51.2641 20.177 51.4737 19.9862L54.6284 17.1131C55.075 16.7064 55.1074 16.0147 54.7006 15.568C54.2938 15.1214 53.6021 15.0891 53.1554 15.4958L50.0009 18.3687C49.5543 18.7755 49.5219 19.4672 49.9287 19.9139C50.1446 20.1509 50.4405 20.2712 50.7376 20.2712Z" fill="#A8B4CA"/>
<path d="M51.4738 33.3189C51.0271 32.9122 50.3354 32.9445 49.9287 33.3911C49.5219 33.8376 49.5543 34.5294 50.0009 34.9362L53.1554 37.8092C53.3652 38.0001 53.6288 38.0943 53.8917 38.0943C54.1887 38.0943 54.4848 37.974 54.7006 37.737C55.1074 37.2904 55.075 36.5986 54.6284 36.1918L51.4738 33.3189Z" fill="#A8B4CA"/>
<path d="M54.9067 25.5587H52.4844C51.8803 25.5587 51.3906 26.0484 51.3906 26.6525C51.3906 27.2566 51.8803 27.7462 52.4844 27.7462H54.9067C55.5108 27.7462 56.0005 27.2566 56.0005 26.6525C56.0005 26.0484 55.5108 25.5587 54.9067 25.5587Z" fill="#A8B4CA"/>
</g>
<defs>
<clipPath id="clip0_237_57">
<rect width="56" height="56" fill="white"/>
</clipPath>
</defs>
</svg>
