<svg width="16" height="16" viewBox="0 0 16 16" fill="none" xmlns="http://www.w3.org/2000/svg">
<path d="M13.6973 5.21619V9.89059C14.5737 9.59155 15.1998 8.64915 15.1998 7.55331C15.1998 6.45763 14.5737 5.51539 13.6973 5.21619Z" fill="white"/>
<path d="M12.2588 1.60065C11.8369 1.60065 11.5641 1.87313 11.5641 2.29505C10.5204 3.76529 8.50843 4.81697 6.15723 5.25857V9.84801C8.50859 10.2898 10.5204 11.3413 11.5641 12.8115C11.5641 13.2336 11.8369 13.5059 12.2588 13.5059C12.6807 13.5059 12.9532 13.2334 12.9532 12.8115V2.29521C12.9532 1.87329 12.6807 1.60065 12.2588 1.60065Z" fill="white"/>
<path d="M5.36364 9.81018V5.29626H2.98252C1.65644 5.29626 0.799805 6.1529 0.799805 7.47882V7.62762C0.799805 8.9537 1.65644 9.81034 2.98252 9.81034H5.36364V9.81018Z" fill="white"/>
<path d="M5.06825 10.505H2.81641L3.59305 13.5669C3.75609 14.2098 4.27657 14.5194 4.91929 14.3567C5.56201 14.1935 5.87193 13.6732 5.70889 13.0304L5.06825 10.505Z" fill="white"/>
</svg>
