<svg width="288" height="32" viewBox="0 0 288 32" fill="none" xmlns="http://www.w3.org/2000/svg">
<path d="M0.5 3C0.5 1.61929 1.61929 0.5 3 0.5H285C286.381 0.5 287.5 1.61929 287.5 3V29C287.5 30.3807 286.381 31.5 285 31.5H3.00001C1.61929 31.5 0.5 30.3807 0.5 29V3Z" fill="white" stroke="#E5E5E5"/>
<rect x="35.5" y="0.5" width="31" height="31" fill="white" stroke="#E5E5E5"/>
<path d="M0.5 3C0.5 1.61929 1.61929 0.5 3 0.5H35.5V31.5H3C1.61929 31.5 0.5 30.3807 0.5 29V3Z" fill="white" stroke="#E5E5E5"/>
<path d="M287.5 3C287.5 1.61929 286.381 0.5 285 0.5H252.5V31.5H285C286.381 31.5 287.5 30.3807 287.5 29V3Z" fill="white" stroke="#E5E5E5"/>
<path d="M52.0527 21H50.7812V12.5713L48.2314 13.5078V12.3594L51.8545 10.999H52.0527V21Z" fill="#30BF60"/>
<rect x="66.5" y="0.5" width="31" height="31" fill="white" stroke="#E5E5E5"/>
<path d="M85.459 21H78.7666V19.8584L82.082 16.2422C82.5605 15.709 82.9001 15.2646 83.1006 14.9092C83.3057 14.5492 83.4082 14.1891 83.4082 13.8291C83.4082 13.3551 83.2738 12.9723 83.0049 12.6807C82.7406 12.389 82.3828 12.2432 81.9316 12.2432C81.3939 12.2432 80.9769 12.4072 80.6807 12.7354C80.3844 13.0635 80.2363 13.5124 80.2363 14.082H78.5752C78.5752 13.4759 78.7119 12.9313 78.9854 12.4482C79.2633 11.9606 79.6576 11.5824 80.168 11.3135C80.6829 11.0446 81.2754 10.9102 81.9453 10.9102C82.9115 10.9102 83.6725 11.154 84.2285 11.6416C84.7891 12.1247 85.0693 12.7946 85.0693 13.6514C85.0693 14.1481 84.9281 14.6699 84.6455 15.2168C84.3675 15.7591 83.9095 16.3766 83.2715 17.0693L80.8379 19.6738H85.459V21Z" fill="#363636"/>
<rect x="97.5" y="0.5" width="31" height="31" fill="white" stroke="#E5E5E5"/>
<path d="M111.735 15.4082H112.686C113.283 15.3991 113.752 15.2419 114.094 14.9365C114.436 14.6312 114.606 14.2188 114.606 13.6992C114.606 12.5326 114.025 11.9492 112.863 11.9492C112.316 11.9492 111.879 12.1064 111.551 12.4209C111.227 12.7308 111.065 13.1432 111.065 13.6582H109.801C109.801 12.8698 110.088 12.2158 110.662 11.6963C111.241 11.1722 111.975 10.9102 112.863 10.9102C113.802 10.9102 114.538 11.1585 115.071 11.6553C115.604 12.152 115.871 12.8424 115.871 13.7266C115.871 14.1595 115.73 14.5788 115.447 14.9844C115.169 15.39 114.789 15.693 114.306 15.8936C114.853 16.0667 115.274 16.3538 115.57 16.7549C115.871 17.1559 116.021 17.6458 116.021 18.2246C116.021 19.1178 115.73 19.8265 115.146 20.3506C114.563 20.8747 113.804 21.1367 112.87 21.1367C111.936 21.1367 111.175 20.8838 110.587 20.3779C110.004 19.8721 109.712 19.2044 109.712 18.375H110.983C110.983 18.8991 111.154 19.3184 111.496 19.6328C111.838 19.9473 112.296 20.1045 112.87 20.1045C113.481 20.1045 113.948 19.945 114.271 19.626C114.595 19.307 114.757 18.849 114.757 18.252C114.757 17.6732 114.579 17.2288 114.224 16.9189C113.868 16.609 113.355 16.4495 112.686 16.4404H111.735V15.4082Z" fill="#1A1A1A"/>
<rect x="128.5" y="0.5" width="31" height="31" fill="white" stroke="#E5E5E5"/>
<path d="M146.235 17.6572H147.616V18.6895H146.235V21H144.964V18.6895H140.432V17.9443L144.889 11.0469H146.235V17.6572ZM141.867 17.6572H144.964V12.7764L144.813 13.0498L141.867 17.6572Z" fill="#1A1A1A"/>
<rect x="159.5" y="0.5" width="31" height="31" fill="white" stroke="#E5E5E5"/>
<path d="M172.478 16.0098L172.983 11.0469H178.083V12.2158H174.057L173.756 14.9297C174.243 14.6426 174.797 14.499 175.417 14.499C176.324 14.499 177.044 14.7998 177.577 15.4014C178.11 15.9984 178.377 16.8073 178.377 17.8281C178.377 18.8535 178.099 19.6624 177.543 20.2549C176.992 20.8428 176.219 21.1367 175.226 21.1367C174.346 21.1367 173.628 20.8929 173.072 20.4053C172.516 19.9176 172.2 19.2432 172.122 18.3818H173.318C173.396 18.9515 173.599 19.3822 173.927 19.6738C174.255 19.9609 174.688 20.1045 175.226 20.1045C175.813 20.1045 176.274 19.904 176.606 19.5029C176.944 19.1019 177.112 18.5482 177.112 17.8418C177.112 17.1764 176.93 16.6432 176.565 16.2422C176.205 15.8366 175.725 15.6338 175.123 15.6338C174.572 15.6338 174.139 15.7546 173.824 15.9961L173.489 16.2695L172.478 16.0098Z" fill="#1A1A1A"/>
<rect x="190.5" y="0.5" width="31" height="31" fill="white" stroke="#E5E5E5"/>
<path d="M202.329 20.3369C202.329 20.1182 202.393 19.9359 202.521 19.79C202.653 19.6442 202.849 19.5713 203.108 19.5713C203.368 19.5713 203.564 19.6442 203.696 19.79C203.833 19.9359 203.901 20.1182 203.901 20.3369C203.901 20.5465 203.833 20.722 203.696 20.8633C203.564 21.0046 203.368 21.0752 203.108 21.0752C202.849 21.0752 202.653 21.0046 202.521 20.8633C202.393 20.722 202.329 20.5465 202.329 20.3369ZM205.316 20.3369C205.316 20.1182 205.38 19.9359 205.508 19.79C205.64 19.6442 205.836 19.5713 206.096 19.5713C206.355 19.5713 206.551 19.6442 206.684 19.79C206.82 19.9359 206.889 20.1182 206.889 20.3369C206.889 20.5465 206.82 20.722 206.684 20.8633C206.551 21.0046 206.355 21.0752 206.096 21.0752C205.836 21.0752 205.64 21.0046 205.508 20.8633C205.38 20.722 205.316 20.5465 205.316 20.3369ZM208.153 20.3369C208.153 20.1182 208.217 19.9359 208.345 19.79C208.477 19.6442 208.673 19.5713 208.933 19.5713C209.192 19.5713 209.388 19.6442 209.521 19.79C209.657 19.9359 209.726 20.1182 209.726 20.3369C209.726 20.5465 209.657 20.722 209.521 20.8633C209.388 21.0046 209.192 21.0752 208.933 21.0752C208.673 21.0752 208.477 21.0046 208.345 20.8633C208.217 20.722 208.153 20.5465 208.153 20.3369Z" fill="#1A1A1A"/>
<rect x="221.5" y="0.5" width="31" height="31" fill="white" stroke="#E5E5E5"/>
<path d="M238.743 16.625C238.479 16.9395 238.162 17.1924 237.793 17.3838C237.428 17.5752 237.027 17.6709 236.59 17.6709C236.016 17.6709 235.514 17.5296 235.086 17.2471C234.662 16.9645 234.334 16.568 234.102 16.0576C233.869 15.5426 233.753 14.9753 233.753 14.3555C233.753 13.6901 233.878 13.0908 234.129 12.5576C234.384 12.0244 234.744 11.6165 235.209 11.334C235.674 11.0514 236.216 10.9102 236.836 10.9102C237.82 10.9102 238.595 11.2793 239.16 12.0176C239.73 12.7513 240.015 13.7539 240.015 15.0254V15.3945C240.015 17.3314 239.632 18.7464 238.866 19.6396C238.101 20.5283 236.945 20.984 235.4 21.0068H235.154V19.9404H235.421C236.465 19.9222 237.267 19.651 237.827 19.127C238.388 18.5983 238.693 17.7643 238.743 16.625ZM236.795 16.625C237.219 16.625 237.608 16.4951 237.964 16.2354C238.324 15.9756 238.586 15.6543 238.75 15.2715V14.7656C238.75 13.9362 238.57 13.2617 238.21 12.7422C237.85 12.2227 237.394 11.9629 236.843 11.9629C236.287 11.9629 235.84 12.1771 235.503 12.6055C235.166 13.0293 234.997 13.5898 234.997 14.2871C234.997 14.9661 235.159 15.5267 235.482 15.9688C235.811 16.4062 236.248 16.625 236.795 16.625Z" fill="#1A1A1A"/>
<path d="M18.9211 12L15 16L19 20" stroke="#999999" stroke-width="2" stroke-linecap="round"/>
<path d="M268.079 12L272 16L268 20" stroke="#999999" stroke-width="2" stroke-linecap="round"/>
</svg>
