<svg width="15" height="16" viewBox="0 0 15 16" fill="none" xmlns="http://www.w3.org/2000/svg">
<path d="M0.879883 12.6812C1.50809 12.2651 4.84356 10.9263 5.19256 10.9564C5.22746 10.5453 5.26735 10.1341 5.30225 9.71799C5.30723 9.67286 5.2823 9.6127 5.25239 9.58261C4.83359 9.1815 4.77376 8.62496 4.60923 8.11354C4.57931 8.0283 4.56436 7.93805 4.53444 7.82774C4.25524 7.90796 4.14057 7.72746 4.07575 7.50184C3.93116 6.96535 3.77661 6.42886 3.66692 5.88234C3.59712 5.5414 3.74171 5.4361 4.19042 5.4712C4.18045 5.3609 4.16051 5.2556 4.1655 5.15031C4.20538 4.318 4.24028 3.48569 4.31008 2.65338C4.33003 2.41271 4.42974 2.16202 4.55438 1.95143C5.20752 0.873443 6.13487 0.181522 7.40624 0.0311048C8.99669 -0.15441 10.2082 0.497399 11.1156 1.78597C11.4597 2.27232 11.5295 2.8389 11.5494 3.40547C11.5693 4.08736 11.5544 4.76925 11.5544 5.4712C11.6641 5.46117 11.7339 5.44112 11.8037 5.45115C11.9782 5.46619 12.1178 5.55142 12.0978 5.74697C12.033 6.42385 11.8785 7.08067 11.5843 7.69237C11.5444 7.7776 11.3849 7.80769 11.2104 7.90295C11.1256 8.17872 11.0259 8.54975 10.9013 8.90573C10.8364 9.09125 10.7467 9.28178 10.622 9.42718C10.4824 9.58763 10.4376 9.74807 10.4625 9.94863C10.5024 10.2795 10.5323 10.6105 10.5672 10.9063C10.7417 10.9464 10.8963 10.9614 11.0309 11.0166C12.2175 11.508 13.4041 12.0043 14.5907 12.5007C14.6904 12.5408 14.7802 12.596 14.8799 12.6461C11.5295 16.9882 4.52946 17.2338 0.879883 12.6812Z" fill="white"/>
</svg>
