<svg width="24" height="24" viewBox="0 0 24 24" fill="none" xmlns="http://www.w3.org/2000/svg">
<path fill-rule="evenodd" clip-rule="evenodd" d="M12 24C18.6274 24 24 18.6274 24 12C24 5.37258 18.6274 0 12 0C5.37258 0 0 5.37258 0 12C0 18.6274 5.37258 24 12 24Z" fill="#31ACE0"/>
<path fill-rule="evenodd" clip-rule="evenodd" d="M7.977 13.1386L5.21196 12.09C4.93112 11.9831 4.92868 11.5803 5.20872 11.4706L16.5565 7.02278C16.7971 6.92825 17.0453 7.14238 16.9929 7.39907L14.9565 17.3516C14.9085 17.5866 14.6373 17.6932 14.4459 17.5518L11.666 15.5012C11.4972 15.3767 11.267 15.3834 11.1055 15.5171L9.5642 16.7937C9.38528 16.9423 9.11572 16.8596 9.04724 16.6356L7.977 13.1386ZM14.2787 9.19881L8.87476 12.5804C8.66764 12.7103 8.57012 12.9644 8.63704 13.2023L9.22132 15.2882C9.2628 15.436 9.47396 15.4209 9.49408 15.2682L9.646 14.1243C9.67464 13.9089 9.77576 13.7105 9.93252 13.5623L14.3923 9.35024C14.4757 9.27164 14.3758 9.13821 14.2787 9.19881Z" fill="white"/>
</svg>
