<svg width="246" height="962" viewBox="0 0 246 962" fill="none" xmlns="http://www.w3.org/2000/svg">
<g filter="url(#filter0_d_31_4273)">
<rect y="2" width="242" height="1102" fill="white"/>
</g>
<g filter="url(#filter1_ii_31_4273)">
<path fill-rule="evenodd" clip-rule="evenodd" d="M0 2.00025H242V66H0V2.00025Z" fill="#F3F3F3"/>
</g>
<path d="M65.439 41.2725H63.9155V39H57.8281V41.2725H56.2793L56.2285 37.7178H56.9712C57.3394 37.3623 57.6335 36.846 57.8535 36.1689C58.0736 35.4876 58.2153 34.7174 58.2788 33.8584L58.52 29.7578H64.3472V37.7178H65.5215L65.439 41.2725ZM58.7866 37.7178H62.7476V31.0527H60.0498L59.8975 33.6553C59.7832 35.3945 59.4129 36.7487 58.7866 37.7178ZM72.0024 36.8481H68.4224L67.6733 39H66.0039L69.4951 29.7578H70.936L74.4336 39H72.7578L72.0024 36.8481ZM68.873 35.5532H71.5518L70.2124 31.7192L68.873 35.5532ZM77.125 29.7578V37.7178H79.9434V29.7578H81.543V37.7178H84.3423V29.7578H85.9419V39H75.5127V29.7578H77.125ZM93.6924 31.0527H89.4331V33.2935H91.3247C92.0018 33.2935 92.5921 33.4098 93.0957 33.6426C93.5993 33.8753 93.9823 34.2054 94.2446 34.6328C94.507 35.0602 94.6382 35.5553 94.6382 36.1182C94.6382 36.9814 94.3441 37.6755 93.7559 38.2002C93.1719 38.7249 92.3742 38.9915 91.3628 39H87.8271V29.7578H93.6924V31.0527ZM89.4331 34.582V37.7178H91.3184C91.86 37.7178 92.2811 37.5718 92.5815 37.2798C92.8862 36.9836 93.0386 36.5921 93.0386 36.1055C93.0386 35.64 92.8905 35.2718 92.5942 35.001C92.298 34.7301 91.8875 34.5905 91.3628 34.582H89.4331ZM103.404 34.6201C103.404 35.5257 103.248 36.3213 102.935 37.0068C102.621 37.6882 102.173 38.2129 101.589 38.5811C101.009 38.945 100.34 39.127 99.583 39.127C98.834 39.127 98.1654 38.945 97.5771 38.5811C96.9932 38.2129 96.5404 37.6903 96.2188 37.0132C95.9014 36.3361 95.7406 35.5553 95.7363 34.6709V34.1504C95.7363 33.249 95.895 32.4535 96.2124 31.7637C96.534 31.0739 96.9847 30.547 97.5645 30.1831C98.1484 29.8149 98.8171 29.6309 99.5703 29.6309C100.324 29.6309 100.99 29.8128 101.57 30.1768C102.154 30.5365 102.604 31.057 102.922 31.7383C103.239 32.4154 103.4 33.2046 103.404 34.106V34.6201ZM101.798 34.1377C101.798 33.1136 101.604 32.3286 101.214 31.7827C100.829 31.2368 100.281 30.9639 99.5703 30.9639C98.8763 30.9639 98.3325 31.2368 97.939 31.7827C97.5496 32.3244 97.3507 33.0924 97.3423 34.0869V34.6201C97.3423 35.6357 97.5391 36.4207 97.9326 36.9751C98.3304 37.5295 98.8805 37.8066 99.583 37.8066C100.294 37.8066 100.84 37.5358 101.221 36.9941C101.606 36.4525 101.798 35.6611 101.798 34.6201V34.1377ZM106.61 35.5659V39H105.004V29.7578H108.54C109.572 29.7578 110.391 30.0265 110.996 30.564C111.605 31.1014 111.91 31.8123 111.91 32.6968C111.91 33.6024 111.612 34.307 111.015 34.8105C110.423 35.3141 109.591 35.5659 108.521 35.5659H106.61ZM106.61 34.2773H108.54C109.111 34.2773 109.547 34.144 109.847 33.8774C110.148 33.6066 110.298 33.2173 110.298 32.7095C110.298 32.2101 110.146 31.8123 109.841 31.5161C109.536 31.2157 109.117 31.0612 108.584 31.0527H106.61V34.2773ZM120.308 41.2725H118.785V39H112.697V41.2725H111.148L111.098 37.7178H111.84C112.208 37.3623 112.503 36.846 112.723 36.1689C112.943 35.4876 113.084 34.7174 113.148 33.8584L113.389 29.7578H119.216V37.7178H120.391L120.308 41.2725ZM113.656 37.7178H117.617V31.0527H114.919L114.767 33.6553C114.652 35.3945 114.282 36.7487 113.656 37.7178Z" fill="#20C05D"/>
<path fill-rule="evenodd" clip-rule="evenodd" d="M29 31V25H37V31H29ZM37 43H29V33H37V43ZM19 43H27V37H19V43ZM27 35H19V25H27V35Z" fill="#30BF60"/>
<rect y="66" width="240" height="56" fill="white"/>
<path d="M64.252 99H62.6523V91.0527H58.5835V99H56.9839V89.7578H64.252V99ZM73.5703 94.6201C73.5703 95.5257 73.4137 96.3213 73.1006 97.0068C72.7874 97.6882 72.3389 98.2129 71.7549 98.5811C71.1751 98.945 70.5065 99.127 69.749 99.127C69 99.127 68.3314 98.945 67.7432 98.5811C67.1592 98.2129 66.7064 97.6903 66.3848 97.0132C66.0674 96.3361 65.9066 95.5553 65.9023 94.6709V94.1504C65.9023 93.249 66.061 92.4535 66.3784 91.7637C66.7 91.0739 67.1507 90.547 67.7305 90.1831C68.3145 89.8149 68.9831 89.6309 69.7363 89.6309C70.4896 89.6309 71.1561 89.8128 71.7358 90.1768C72.3198 90.5365 72.7705 91.057 73.0879 91.7383C73.4053 92.4154 73.5661 93.2046 73.5703 94.106V94.6201ZM71.9644 94.1377C71.9644 93.1136 71.7697 92.3286 71.3804 91.7827C70.9953 91.2368 70.4473 90.9639 69.7363 90.9639C69.0423 90.9639 68.4985 91.2368 68.105 91.7827C67.7157 92.3244 67.5168 93.0924 67.5083 94.0869V94.6201C67.5083 95.6357 67.7051 96.4207 68.0986 96.9751C68.4964 97.5295 69.0465 97.8066 69.749 97.8066C70.46 97.8066 71.0059 97.5358 71.3867 96.9941C71.7718 96.4525 71.9644 95.6611 71.9644 94.6201V94.1377ZM76.8076 89.7578V97.7178H79.626V89.7578H81.2256V97.7178H84.0249V89.7578H85.6245V99H75.1953V89.7578H76.8076ZM90.8613 94.5884L92.7148 89.7578H94.4985L91.2803 97.4258L90.9883 98.0034C90.5651 98.7567 89.8796 99.1333 88.9316 99.1333L88.2715 99.0952L88.2842 97.8257C88.3857 97.8426 88.5656 97.8511 88.8237 97.8511C89.2808 97.8511 89.6024 97.6564 89.7886 97.2671L90.1187 96.4863L86.9575 89.7578H88.7095L90.8613 94.5884ZM98.4595 95.0391H97.3677V99H95.7681V89.7578H97.3677V93.6426H98.25L100.967 89.7578H102.935L99.7607 94.1821L103.214 99H101.284L98.4595 95.0391ZM114.652 99H113.053V91.0527H108.984V99H107.384V89.7578H114.652V99ZM123.971 94.6201C123.971 95.5257 123.814 96.3213 123.501 97.0068C123.188 97.6882 122.739 98.2129 122.155 98.5811C121.576 98.945 120.907 99.127 120.149 99.127C119.4 99.127 118.732 98.945 118.144 98.5811C117.56 98.2129 117.107 97.6903 116.785 97.0132C116.468 96.3361 116.307 95.5553 116.303 94.6709V94.1504C116.303 93.249 116.461 92.4535 116.779 91.7637C117.1 91.0739 117.551 90.547 118.131 90.1831C118.715 89.8149 119.383 89.6309 120.137 89.6309C120.89 89.6309 121.556 89.8128 122.136 90.1768C122.72 90.5365 123.171 91.057 123.488 91.7383C123.806 92.4154 123.966 93.2046 123.971 94.106V94.6201ZM122.365 94.1377C122.365 93.1136 122.17 92.3286 121.781 91.7827C121.396 91.2368 120.848 90.9639 120.137 90.9639C119.443 90.9639 118.899 91.2368 118.505 91.7827C118.116 92.3244 117.917 93.0924 117.909 94.0869V94.6201C117.909 95.6357 118.105 96.4207 118.499 96.9751C118.897 97.5295 119.447 97.8066 120.149 97.8066C120.86 97.8066 121.406 97.5358 121.787 96.9941C122.172 96.4525 122.365 95.6611 122.365 94.6201V94.1377ZM137.307 101.272H135.784V99H129.696V101.272H128.147L128.097 97.7178H128.839C129.208 97.3623 129.502 96.846 129.722 96.1689C129.942 95.4876 130.083 94.7174 130.147 93.8584L130.388 89.7578H136.215V97.7178H137.39L137.307 101.272ZM130.655 97.7178H134.616V91.0527H131.918L131.766 93.6553C131.651 95.3945 131.281 96.7487 130.655 97.7178ZM145.819 94.6201C145.819 95.5257 145.663 96.3213 145.35 97.0068C145.036 97.6882 144.588 98.2129 144.004 98.5811C143.424 98.945 142.756 99.127 141.998 99.127C141.249 99.127 140.58 98.945 139.992 98.5811C139.408 98.2129 138.955 97.6903 138.634 97.0132C138.316 96.3361 138.156 95.5553 138.151 94.6709V94.1504C138.151 93.249 138.31 92.4535 138.627 91.7637C138.949 91.0739 139.4 90.547 139.979 90.1831C140.563 89.8149 141.232 89.6309 141.985 89.6309C142.739 89.6309 143.405 89.8128 143.985 90.1768C144.569 90.5365 145.02 91.057 145.337 91.7383C145.654 92.4154 145.815 93.2046 145.819 94.106V94.6201ZM144.213 94.1377C144.213 93.1136 144.019 92.3286 143.629 91.7827C143.244 91.2368 142.696 90.9639 141.985 90.9639C141.291 90.9639 140.748 91.2368 140.354 91.7827C139.965 92.3244 139.766 93.0924 139.757 94.0869V94.6201C139.757 95.6357 139.954 96.4207 140.348 96.9751C140.745 97.5295 141.296 97.8066 141.998 97.8066C142.709 97.8066 143.255 97.5358 143.636 96.9941C144.021 96.4525 144.213 95.6611 144.213 94.6201V94.1377ZM154.471 95.9912C154.378 96.9772 154.014 97.7474 153.379 98.3018C152.745 98.8519 151.9 99.127 150.847 99.127C150.11 99.127 149.461 98.9535 148.898 98.6064C148.339 98.2552 147.908 97.758 147.603 97.1147C147.298 96.4715 147.14 95.7246 147.127 94.874V94.0107C147.127 93.139 147.281 92.3709 147.59 91.7065C147.899 91.0422 148.341 90.5301 148.917 90.1704C149.497 89.8107 150.165 89.6309 150.923 89.6309C151.943 89.6309 152.764 89.908 153.386 90.4624C154.008 91.0168 154.37 91.7996 154.471 92.811H152.872C152.795 92.1466 152.601 91.6685 152.288 91.3765C151.979 91.0802 151.524 90.9321 150.923 90.9321C150.225 90.9321 149.687 91.1882 149.311 91.7002C148.938 92.208 148.748 92.9549 148.739 93.9409V94.7598C148.739 95.7585 148.917 96.5202 149.272 97.0449C149.632 97.5697 150.157 97.832 150.847 97.832C151.477 97.832 151.951 97.6903 152.269 97.4067C152.586 97.1232 152.787 96.6514 152.872 95.9912H154.471ZM157.493 93.2935H159.384C160.061 93.2935 160.652 93.4098 161.155 93.6426C161.659 93.8753 162.042 94.2054 162.304 94.6328C162.567 95.0602 162.698 95.5553 162.698 96.1182C162.698 96.9814 162.404 97.6755 161.815 98.2002C161.231 98.7249 160.434 98.9915 159.422 99H155.887V89.7578H157.493V93.2935ZM157.493 94.582V97.7178H159.378C159.92 97.7178 160.341 97.5718 160.641 97.2798C160.946 96.9836 161.098 96.5921 161.098 96.1055C161.098 95.64 160.95 95.2718 160.654 95.001C160.358 94.7301 159.947 94.5905 159.422 94.582H157.493ZM171.159 95.9976C171.066 96.9793 170.702 97.7474 170.067 98.3018C169.433 98.8519 168.59 99.127 167.541 99.127C166.8 99.127 166.147 98.9535 165.58 98.6064C165.017 98.2552 164.581 97.7516 164.272 97.0957C163.967 96.4398 163.813 95.6738 163.809 94.7979V94.0171C163.809 93.1411 163.963 92.3709 164.272 91.7065C164.581 91.0422 165.023 90.5301 165.599 90.1704C166.178 89.8107 166.849 89.6309 167.611 89.6309C168.639 89.6309 169.462 89.9123 170.08 90.4751C170.702 91.0379 171.064 91.8187 171.166 92.8174H169.566C169.49 92.1572 169.295 91.6769 168.982 91.3765C168.669 91.076 168.212 90.9258 167.611 90.9258C166.93 90.9258 166.403 91.1691 166.03 91.6558C165.658 92.1382 165.455 92.8237 165.421 93.7124H168.639V94.9946H165.415C165.444 95.9299 165.639 96.6408 165.999 97.1274C166.362 97.6099 166.877 97.8511 167.541 97.8511C168.163 97.8511 168.633 97.7093 168.95 97.4258C169.268 97.138 169.469 96.6619 169.553 95.9976H171.159Z" fill="#1A1A1A"/>
<path fill-rule="evenodd" clip-rule="evenodd" d="M32 87H26V89H32V87Z" fill="#757575"/>
<path fill-rule="evenodd" clip-rule="evenodd" d="M32 90H24V92H32V90Z" fill="#757575"/>
<path fill-rule="evenodd" clip-rule="evenodd" d="M32 93H24V95H32V93Z" fill="#757575"/>
<path fill-rule="evenodd" clip-rule="evenodd" d="M23 86H33V96H32C31.448 96 31 96.448 31 97V98H25V97C25 96.448 24.552 96 24 96H23V86ZM36 96H35V85C35 84.448 34.552 84 34 84H22C21.448 84 21 84.448 21 85V96H20C19.448 96 19 96.448 19 97V102C19 103.103 19.897 104 21 104H35C36.103 104 37 103.103 37 102V97C37 96.448 36.552 96 36 96Z" fill="#757575"/>
<rect y="122" width="240" height="56" fill="white"/>
<path d="M59.0215 145.758L61.6875 152.842L64.3472 145.758H66.4229V155H64.8232V151.953L64.9819 147.878L62.2524 155H61.1035L58.3804 147.884L58.5391 151.953V155H56.9395V145.758H59.0215ZM75.7031 150.62C75.7031 151.526 75.5465 152.321 75.2334 153.007C74.9202 153.688 74.4717 154.213 73.8877 154.581C73.3079 154.945 72.6393 155.127 71.8818 155.127C71.1328 155.127 70.4642 154.945 69.876 154.581C69.292 154.213 68.8392 153.69 68.5176 153.013C68.2002 152.336 68.0394 151.555 68.0352 150.671V150.15C68.0352 149.249 68.1938 148.453 68.5112 147.764C68.8328 147.074 69.2835 146.547 69.8633 146.183C70.4473 145.815 71.1159 145.631 71.8691 145.631C72.6224 145.631 73.2889 145.813 73.8687 146.177C74.4526 146.536 74.9033 147.057 75.2207 147.738C75.5381 148.415 75.6989 149.205 75.7031 150.106V150.62ZM74.0972 150.138C74.0972 149.114 73.9025 148.329 73.5132 147.783C73.1281 147.237 72.5801 146.964 71.8691 146.964C71.1751 146.964 70.6313 147.237 70.2378 147.783C69.8485 148.324 69.6496 149.092 69.6411 150.087V150.62C69.6411 151.636 69.8379 152.421 70.2314 152.975C70.6292 153.529 71.1794 153.807 71.8818 153.807C72.5928 153.807 73.1387 153.536 73.5195 152.994C73.9046 152.452 74.0972 151.661 74.0972 150.62V150.138ZM84.6406 155H83.041V150.893H78.9087V155H77.3027V145.758H78.9087V149.604H83.041V145.758H84.6406V155ZM88.2397 155H86.6401V145.758H88.2397V155ZM96.7012 147.053H93.8193V155H92.2261V147.053H89.3696V145.758H96.7012V147.053ZM105.118 150.62C105.118 151.526 104.962 152.321 104.648 153.007C104.335 153.688 103.887 154.213 103.303 154.581C102.723 154.945 102.054 155.127 101.297 155.127C100.548 155.127 99.8792 154.945 99.291 154.581C98.707 154.213 98.2542 153.69 97.9326 153.013C97.6152 152.336 97.4544 151.555 97.4502 150.671V150.15C97.4502 149.249 97.6089 148.453 97.9263 147.764C98.2479 147.074 98.6986 146.547 99.2783 146.183C99.8623 145.815 100.531 145.631 101.284 145.631C102.037 145.631 102.704 145.813 103.284 146.177C103.868 146.536 104.318 147.057 104.636 147.738C104.953 148.415 105.114 149.205 105.118 150.106V150.62ZM103.512 150.138C103.512 149.114 103.318 148.329 102.928 147.783C102.543 147.237 101.995 146.964 101.284 146.964C100.59 146.964 100.046 147.237 99.6528 147.783C99.2635 148.324 99.0646 149.092 99.0562 150.087V150.62C99.0562 151.636 99.2529 152.421 99.6465 152.975C100.044 153.529 100.594 153.807 101.297 153.807C102.008 153.807 102.554 153.536 102.935 152.994C103.32 152.452 103.512 151.661 103.512 150.62V150.138ZM108.324 151.566V155H106.718V145.758H110.253C111.286 145.758 112.105 146.027 112.71 146.564C113.319 147.101 113.624 147.812 113.624 148.697C113.624 149.602 113.326 150.307 112.729 150.811C112.137 151.314 111.305 151.566 110.234 151.566H108.324ZM108.324 150.277H110.253C110.825 150.277 111.261 150.144 111.561 149.877C111.861 149.607 112.012 149.217 112.012 148.709C112.012 148.21 111.859 147.812 111.555 147.516C111.25 147.216 110.831 147.061 110.298 147.053H108.324V150.277ZM120.695 145.758H122.301V155H120.695V148.417L116.639 155H115.033V145.758H116.639V152.347L120.695 145.758ZM131.562 155H129.963V150.893H125.831V155H124.225V145.758H125.831V149.604H129.963V145.758H131.562V155ZM139.376 147.053H135.111V155H133.511V145.758H139.376V147.053Z" fill="#1A1A1A"/>
<path fill-rule="evenodd" clip-rule="evenodd" d="M28 140.5C23.14 140.5 18.78 143.5 17 148C19.39 154.08 26.25 157.06 32.33 154.67C35.38 153.47 37.8 151.06 39 148C37.22 143.5 32.86 140.5 28 140.5ZM23 148C23 150.761 25.2386 153 28 153C30.7614 153 33 150.761 33 148C33 145.239 30.7614 143 28 143C25.2386 143 23 145.239 23 148ZM25 148C25 146.343 26.3431 145 28 145C29.6569 145 31 146.343 31 148C31 149.657 29.6569 151 28 151C26.3431 151 25 149.657 25 148ZM25 158H23V160H25V158ZM29 158V160H27V158H29ZM33 158H31V160H33V158Z" fill="#757575"/>
<rect y="178" width="240" height="56" fill="white"/>
<path d="M59.0215 201.758L61.6875 208.842L64.3472 201.758H66.4229V211H64.8232V207.953L64.9819 203.878L62.2524 211H61.1035L58.3804 203.884L58.5391 207.953V211H56.9395V201.758H59.0215ZM75.7031 206.62C75.7031 207.526 75.5465 208.321 75.2334 209.007C74.9202 209.688 74.4717 210.213 73.8877 210.581C73.3079 210.945 72.6393 211.127 71.8818 211.127C71.1328 211.127 70.4642 210.945 69.876 210.581C69.292 210.213 68.8392 209.69 68.5176 209.013C68.2002 208.336 68.0394 207.555 68.0352 206.671V206.15C68.0352 205.249 68.1938 204.453 68.5112 203.764C68.8328 203.074 69.2835 202.547 69.8633 202.183C70.4473 201.815 71.1159 201.631 71.8691 201.631C72.6224 201.631 73.2889 201.813 73.8687 202.177C74.4526 202.536 74.9033 203.057 75.2207 203.738C75.5381 204.415 75.6989 205.205 75.7031 206.106V206.62ZM74.0972 206.138C74.0972 205.114 73.9025 204.329 73.5132 203.783C73.1281 203.237 72.5801 202.964 71.8691 202.964C71.1751 202.964 70.6313 203.237 70.2378 203.783C69.8485 204.324 69.6496 205.092 69.6411 206.087V206.62C69.6411 207.636 69.8379 208.421 70.2314 208.975C70.6292 209.529 71.1794 209.807 71.8818 209.807C72.5928 209.807 73.1387 209.536 73.5195 208.994C73.9046 208.452 74.0972 207.661 74.0972 206.62V206.138ZM78.9976 211H77.3979V201.758H78.9976V211ZM75.9507 200.317C75.9507 200.105 76.0226 199.928 76.1665 199.784C76.3062 199.64 76.5008 199.568 76.7505 199.568C77.0002 199.568 77.1969 199.64 77.3408 199.784C77.4847 199.928 77.5566 200.105 77.5566 200.317C77.5566 200.528 77.4847 200.706 77.3408 200.85C77.1969 200.994 77.0002 201.066 76.7505 201.066C76.5008 201.066 76.3062 200.994 76.1665 200.85C76.0226 200.706 75.9507 200.528 75.9507 200.317ZM78.8516 200.323C78.8516 200.112 78.9214 199.934 79.061 199.79C79.2049 199.646 79.4017 199.574 79.6514 199.574C79.901 199.574 80.0978 199.646 80.2417 199.79C80.3856 199.934 80.4575 200.112 80.4575 200.323C80.4575 200.535 80.3856 200.713 80.2417 200.856C80.0978 201 79.901 201.072 79.6514 201.072C79.4017 201.072 79.2049 201 79.061 200.856C78.9214 200.713 78.8516 200.535 78.8516 200.323ZM86.9448 207.039H85.853V211H84.2534V201.758H85.853V205.643H86.7354L89.4521 201.758H91.4199L88.2461 206.182L91.6992 211H89.7695L86.9448 207.039ZM99.7607 206.62C99.7607 207.526 99.6042 208.321 99.291 209.007C98.9779 209.688 98.5293 210.213 97.9453 210.581C97.3656 210.945 96.6969 211.127 95.9395 211.127C95.1904 211.127 94.5218 210.945 93.9336 210.581C93.3496 210.213 92.8968 209.69 92.5752 209.013C92.2578 208.336 92.097 207.555 92.0928 206.671V206.15C92.0928 205.249 92.2515 204.453 92.5688 203.764C92.8905 203.074 93.3411 202.547 93.9209 202.183C94.5049 201.815 95.1735 201.631 95.9268 201.631C96.68 201.631 97.3465 201.813 97.9263 202.177C98.5103 202.536 98.9609 203.057 99.2783 203.738C99.5957 204.415 99.7565 205.205 99.7607 206.106V206.62ZM98.1548 206.138C98.1548 205.114 97.9601 204.329 97.5708 203.783C97.1857 203.237 96.6377 202.964 95.9268 202.964C95.2327 202.964 94.689 203.237 94.2954 203.783C93.9061 204.324 93.7072 205.092 93.6987 206.087V206.62C93.6987 207.636 93.8955 208.421 94.2891 208.975C94.6868 209.529 95.237 209.807 95.9395 209.807C96.6504 209.807 97.1963 209.536 97.5771 208.994C97.9622 208.452 98.1548 207.661 98.1548 206.62V206.138ZM108.698 211H107.099V206.893H102.966V211H101.36V201.758H102.966V205.604H107.099V201.758H108.698V211ZM117.09 203.053H114.208V211H112.615V203.053H109.758V201.758H117.09V203.053ZM119.915 207.566V211H118.309V201.758H121.844C122.877 201.758 123.696 202.027 124.301 202.564C124.91 203.101 125.215 203.812 125.215 204.697C125.215 205.602 124.917 206.307 124.32 206.811C123.727 207.314 122.896 207.566 121.825 207.566H119.915ZM119.915 206.277H121.844C122.416 206.277 122.851 206.144 123.152 205.877C123.452 205.607 123.603 205.217 123.603 204.709C123.603 204.21 123.45 203.812 123.146 203.516C122.841 203.216 122.422 203.061 121.889 203.053H119.915V206.277ZM130.667 208.848H127.087L126.338 211H124.669L128.16 201.758H129.601L133.099 211H131.423L130.667 208.848ZM127.538 207.553H130.217L128.877 203.719L127.538 207.553ZM140.062 203.053H135.796V211H134.197V201.758H140.062V203.053ZM146.803 206.874H143.007V209.718H147.444V211H141.401V201.758H147.4V203.053H143.007V205.604H146.803V206.874ZM156.09 211H154.49V206.893H150.358V211H148.752V201.758H150.358V205.604H154.49V201.758H156.09V211ZM164.481 203.053H161.6V211H160.006V203.053H157.15V201.758H164.481V203.053ZM171.362 201.758H172.968V211H171.362V204.417L167.306 211H165.7V201.758H167.306V208.347L171.362 201.758Z" fill="#1A1A1A"/>
<path fill-rule="evenodd" clip-rule="evenodd" d="M22 200C23.6569 200 25 201.343 25 203C25 204.657 23.6569 206 22 206C20.3431 206 19 204.657 19 203C19 201.343 20.3431 200 22 200ZM22 208C24 208 28 209 28 211V213H16V211C16 209 20 208 22 208ZM31.1468 206.927L30.4733 210.854L34 209L37.5267 210.854L36.8532 206.927L39.7063 204.146L35.7634 203.573L34 200L32.2366 203.573L28.2937 204.146L31.1468 206.927Z" fill="#757575"/>
<rect y="234" width="240" height="56" fill="white"/>
<path d="M64.252 267H62.6523V259.053H58.5835V267H56.9839V257.758H64.252V267ZM73.5703 262.62C73.5703 263.526 73.4137 264.321 73.1006 265.007C72.7874 265.688 72.3389 266.213 71.7549 266.581C71.1751 266.945 70.5065 267.127 69.749 267.127C69 267.127 68.3314 266.945 67.7432 266.581C67.1592 266.213 66.7064 265.69 66.3848 265.013C66.0674 264.336 65.9066 263.555 65.9023 262.671V262.15C65.9023 261.249 66.061 260.453 66.3784 259.764C66.7 259.074 67.1507 258.547 67.7305 258.183C68.3145 257.815 68.9831 257.631 69.7363 257.631C70.4896 257.631 71.1561 257.813 71.7358 258.177C72.3198 258.536 72.7705 259.057 73.0879 259.738C73.4053 260.415 73.5661 261.205 73.5703 262.106V262.62ZM71.9644 262.138C71.9644 261.114 71.7697 260.329 71.3804 259.783C70.9953 259.237 70.4473 258.964 69.7363 258.964C69.0423 258.964 68.4985 259.237 68.105 259.783C67.7157 260.324 67.5168 261.092 67.5083 262.087V262.62C67.5083 263.636 67.7051 264.421 68.0986 264.975C68.4964 265.529 69.0465 265.807 69.749 265.807C70.46 265.807 71.0059 265.536 71.3867 264.994C71.7718 264.452 71.9644 263.661 71.9644 262.62V262.138ZM76.8076 257.758V265.718H79.626V257.758H81.2256V265.718H84.0249V257.758H85.6245V267H75.1953V257.758H76.8076ZM90.8613 262.588L92.7148 257.758H94.4985L91.2803 265.426L90.9883 266.003C90.5651 266.757 89.8796 267.133 88.9316 267.133L88.2715 267.095L88.2842 265.826C88.3857 265.843 88.5656 265.851 88.8237 265.851C89.2808 265.851 89.6024 265.656 89.7886 265.267L90.1187 264.486L86.9575 257.758H88.7095L90.8613 262.588ZM98.4595 263.039H97.3677V267H95.7681V257.758H97.3677V261.643H98.25L100.967 257.758H102.935L99.7607 262.182L103.214 267H101.284L98.4595 263.039ZM111.961 260.278C111.961 259.863 111.804 259.533 111.491 259.288C111.178 259.042 110.753 258.919 110.215 258.919C109.754 258.919 109.369 259.042 109.06 259.288C108.751 259.529 108.597 259.842 108.597 260.227H106.997C106.997 259.723 107.137 259.275 107.416 258.881C107.695 258.488 108.083 258.183 108.578 257.967C109.073 257.747 109.619 257.637 110.215 257.637C111.273 257.637 112.094 257.868 112.678 258.329C113.266 258.79 113.561 259.436 113.561 260.265C113.561 260.684 113.434 261.069 113.18 261.42C112.926 261.772 112.57 262.049 112.113 262.252C112.63 262.43 113.023 262.701 113.294 263.064C113.569 263.424 113.707 263.873 113.707 264.41C113.707 265.24 113.389 265.9 112.754 266.391C112.12 266.877 111.273 267.121 110.215 267.121C109.564 267.121 108.973 267.004 108.444 266.771C107.92 266.539 107.524 266.221 107.257 265.819C106.995 265.417 106.864 264.956 106.864 264.436H108.463C108.463 264.833 108.628 265.17 108.958 265.445C109.289 265.716 109.708 265.851 110.215 265.851C110.782 265.851 111.237 265.718 111.58 265.451C111.927 265.185 112.101 264.838 112.101 264.41C112.101 263.89 111.948 263.513 111.644 263.28C111.343 263.043 110.901 262.925 110.317 262.925H109.231V261.655H110.26C111.394 261.655 111.961 261.196 111.961 260.278ZM115.198 267V257.758H118.366C119.411 257.758 120.207 257.967 120.752 258.386C121.298 258.805 121.571 259.429 121.571 260.259C121.571 260.682 121.457 261.063 121.229 261.401C121 261.74 120.666 262.002 120.226 262.188C120.725 262.324 121.11 262.58 121.381 262.957C121.656 263.329 121.793 263.778 121.793 264.302C121.793 265.17 121.514 265.836 120.956 266.302C120.401 266.767 119.606 267 118.569 267H115.198ZM116.804 262.83V265.718H118.588C119.091 265.718 119.485 265.593 119.769 265.343C120.052 265.094 120.194 264.747 120.194 264.302C120.194 263.342 119.703 262.851 118.721 262.83H116.804ZM116.804 261.649H118.378C118.878 261.649 119.267 261.537 119.546 261.312C119.83 261.084 119.972 260.762 119.972 260.348C119.972 259.891 119.84 259.561 119.578 259.357C119.32 259.154 118.916 259.053 118.366 259.053H116.804V261.649ZM124.155 258.043L123.99 260.525H122.98V257.25H124.155V258.043ZM130.153 267V263.547H128.363L126.58 267H124.859L126.922 263.071C125.847 262.563 125.31 261.731 125.31 260.576C125.31 259.692 125.6 259.004 126.18 258.513C126.764 258.018 127.576 257.766 128.617 257.758H131.759V267H130.153ZM126.91 260.646C126.91 261.167 127.056 261.573 127.348 261.865C127.64 262.157 128.078 262.303 128.662 262.303H130.153V259.053H128.662C128.069 259.053 127.629 259.194 127.341 259.478C127.054 259.762 126.91 260.151 126.91 260.646ZM138.291 260.278C138.291 259.863 138.134 259.533 137.821 259.288C137.508 259.042 137.083 258.919 136.545 258.919C136.084 258.919 135.699 259.042 135.39 259.288C135.081 259.529 134.927 259.842 134.927 260.227H133.327C133.327 259.723 133.467 259.275 133.746 258.881C134.025 258.488 134.413 258.183 134.908 257.967C135.403 257.747 135.949 257.637 136.545 257.637C137.603 257.637 138.424 257.868 139.008 258.329C139.597 258.79 139.891 259.436 139.891 260.265C139.891 260.684 139.764 261.069 139.51 261.42C139.256 261.772 138.9 262.049 138.443 262.252C138.96 262.43 139.353 262.701 139.624 263.064C139.899 263.424 140.037 263.873 140.037 264.41C140.037 265.24 139.719 265.9 139.084 266.391C138.45 266.877 137.603 267.121 136.545 267.121C135.894 267.121 135.303 267.004 134.774 266.771C134.25 266.539 133.854 266.221 133.587 265.819C133.325 265.417 133.194 264.956 133.194 264.436H134.793C134.793 264.833 134.958 265.17 135.289 265.445C135.619 265.716 136.038 265.851 136.545 265.851C137.112 265.851 137.567 265.718 137.91 265.451C138.257 265.185 138.431 264.838 138.431 264.41C138.431 263.89 138.278 263.513 137.974 263.28C137.673 263.043 137.231 262.925 136.647 262.925H135.562V261.655H136.59C137.724 261.655 138.291 261.196 138.291 260.278ZM144.264 263.039H143.172V267H141.573V257.758H143.172V261.643H144.055L146.771 257.758H148.739L145.565 262.182L149.019 267H147.089L144.264 263.039ZM151.602 267H150.002V257.758H151.602V267ZM153.576 267V257.758H156.744C157.789 257.758 158.584 257.967 159.13 258.386C159.676 258.805 159.949 259.429 159.949 260.259C159.949 260.682 159.835 261.063 159.606 261.401C159.378 261.74 159.044 262.002 158.604 262.188C159.103 262.324 159.488 262.58 159.759 262.957C160.034 263.329 160.171 263.778 160.171 264.302C160.171 265.17 159.892 265.836 159.333 266.302C158.779 266.767 157.984 267 156.947 267H153.576ZM155.182 262.83V265.718H156.966C157.469 265.718 157.863 265.593 158.146 265.343C158.43 265.094 158.572 264.747 158.572 264.302C158.572 263.342 158.081 262.851 157.099 262.83H155.182ZM155.182 261.649H156.756C157.256 261.649 157.645 261.537 157.924 261.312C158.208 261.084 158.35 260.762 158.35 260.348C158.35 259.891 158.218 259.561 157.956 259.357C157.698 259.154 157.294 259.053 156.744 259.053H155.182V261.649Z" fill="#1A1A1A"/>
<path fill-rule="evenodd" clip-rule="evenodd" d="M37 265H35V264C35 262.346 33.654 261 32 261H29V259H31C31.552 259 32 258.552 32 258V253C32 252.448 31.552 252 31 252H25C24.448 252 24 252.448 24 253V258C24 258.552 24.448 259 25 259H27V261H24C22.346 261 21 262.346 21 264V265H19C18.448 265 18 265.448 18 266V271C18 271.552 18.448 272 19 272H25C25.552 272 26 271.552 26 271V266C26 265.448 25.552 265 25 265H23V264C23 263.449 23.449 263 24 263H32C32.551 263 33 263.449 33 264V265H31C30.448 265 30 265.448 30 266V271C30 271.552 30.448 272 31 272H37C37.552 272 38 271.552 38 271V266C38 265.448 37.552 265 37 265Z" fill="#757575"/>
<rect y="290" width="240" height="56" fill="white"/>
<path d="M58.5454 319.566V323H56.9395V313.758H60.4751C61.5076 313.758 62.3265 314.027 62.9316 314.564C63.541 315.101 63.8457 315.812 63.8457 316.697C63.8457 317.602 63.5474 318.307 62.9507 318.811C62.3582 319.314 61.5267 319.566 60.4561 319.566H58.5454ZM58.5454 318.277H60.4751C61.0464 318.277 61.4823 318.144 61.7827 317.877C62.0832 317.607 62.2334 317.217 62.2334 316.709C62.2334 316.21 62.0811 315.812 61.7764 315.516C61.4717 315.216 61.0527 315.061 60.5195 315.053H58.5454V318.277ZM70.917 313.758H72.5229V323H70.917V316.417L66.8608 323H65.2549V313.758H66.8608V320.347L70.917 313.758ZM81.7842 323H80.1846V318.893H76.0522V323H74.4463V313.758H76.0522V317.604H80.1846V313.758H81.7842V323ZM86.4243 319.039H85.3325V323H83.7329V313.758H85.3325V317.643H86.2148L88.9316 313.758H90.8994L87.7256 318.182L91.1787 323H89.249L86.4243 319.039ZM97.7295 313.758H99.3354V323H97.7295V316.417L93.6733 323H92.0674V313.758H93.6733V320.347L97.7295 313.758Z" fill="#1A1A1A"/>
<path fill-rule="evenodd" clip-rule="evenodd" d="M35.3273 316.797C35.3273 312.498 31.8293 309 27.5308 309H26.6645V317.663H35.3273V316.797ZM24.9302 318.53V310.786L24.8228 310.8C20.9332 311.286 18 314.609 18 318.529C18 322.829 21.498 326.326 25.7965 326.326C27.6244 326.326 29.4011 325.68 30.7993 324.506L30.8573 324.457L24.9302 318.53ZM34.1612 325.522L28.0375 319.396H37.0581C37.0581 321.478 36.2472 323.435 34.7745 324.909L34.1612 325.522Z" fill="#737373"/>
<rect y="346" width="240" height="56" fill="white"/>
<path d="M63.9917 375.991C63.8986 376.977 63.5347 377.747 62.8999 378.302C62.2651 378.852 61.4209 379.127 60.3672 379.127C59.6309 379.127 58.9813 378.953 58.4185 378.606C57.8599 378.255 57.4282 377.758 57.1235 377.115C56.8188 376.472 56.6602 375.725 56.6475 374.874V374.011C56.6475 373.139 56.8019 372.371 57.1108 371.707C57.4198 371.042 57.862 370.53 58.4375 370.17C59.0173 369.811 59.6859 369.631 60.4434 369.631C61.4632 369.631 62.2842 369.908 62.9062 370.462C63.5283 371.017 63.8901 371.8 63.9917 372.811H62.3921C62.3159 372.147 62.1213 371.668 61.8081 371.376C61.4992 371.08 61.0443 370.932 60.4434 370.932C59.7451 370.932 59.2077 371.188 58.8311 371.7C58.4587 372.208 58.2682 372.955 58.2598 373.941V374.76C58.2598 375.758 58.4375 376.52 58.793 377.045C59.1527 377.57 59.6774 377.832 60.3672 377.832C60.9977 377.832 61.4717 377.69 61.7891 377.407C62.1064 377.123 62.3075 376.651 62.3921 375.991H63.9917ZM72.7451 379H71.1455V371.053H67.0767V379H65.4771V369.758H72.7451V379ZM80.3496 369.758H81.9556V379H80.3496V372.417L76.2935 379H74.6875V369.758H76.2935V376.347L80.3496 369.758ZM90.9312 375.991C90.8381 376.977 90.4741 377.747 89.8394 378.302C89.2046 378.852 88.3604 379.127 87.3066 379.127C86.5703 379.127 85.9207 378.953 85.3579 378.606C84.7993 378.255 84.3677 377.758 84.063 377.115C83.7583 376.472 83.5996 375.725 83.5869 374.874V374.011C83.5869 373.139 83.7414 372.371 84.0503 371.707C84.3592 371.042 84.8014 370.53 85.377 370.17C85.9567 369.811 86.6253 369.631 87.3828 369.631C88.4027 369.631 89.2236 369.908 89.8457 370.462C90.4678 371.017 90.8296 371.8 90.9312 372.811H89.3315C89.2554 372.147 89.0607 371.668 88.7476 371.376C88.4386 371.08 87.9837 370.932 87.3828 370.932C86.6846 370.932 86.1471 371.188 85.7705 371.7C85.3981 372.208 85.2077 372.955 85.1992 373.941V374.76C85.1992 375.758 85.377 376.52 85.7324 377.045C86.0921 377.57 86.6169 377.832 87.3066 377.832C87.9372 377.832 88.4111 377.69 88.7285 377.407C89.0459 377.123 89.2469 376.651 89.3315 375.991H90.9312ZM99.748 374.62C99.748 375.526 99.5915 376.321 99.2783 377.007C98.9652 377.688 98.5166 378.213 97.9326 378.581C97.3529 378.945 96.6842 379.127 95.9268 379.127C95.1777 379.127 94.5091 378.945 93.9209 378.581C93.3369 378.213 92.8841 377.69 92.5625 377.013C92.2451 376.336 92.0843 375.555 92.0801 374.671V374.15C92.0801 373.249 92.2388 372.453 92.5562 371.764C92.8778 371.074 93.3285 370.547 93.9082 370.183C94.4922 369.815 95.1608 369.631 95.9141 369.631C96.6673 369.631 97.3338 369.813 97.9136 370.177C98.4976 370.536 98.9482 371.057 99.2656 371.738C99.583 372.415 99.7438 373.205 99.748 374.106V374.62ZM98.1421 374.138C98.1421 373.114 97.9474 372.329 97.5581 371.783C97.173 371.237 96.625 370.964 95.9141 370.964C95.2201 370.964 94.6763 371.237 94.2827 371.783C93.8934 372.324 93.6945 373.092 93.686 374.087V374.62C93.686 375.636 93.8828 376.421 94.2764 376.975C94.6742 377.529 95.2243 377.807 95.9268 377.807C96.6377 377.807 97.1836 377.536 97.5645 376.994C97.9495 376.452 98.1421 375.661 98.1421 374.62V374.138ZM104.083 375.039H102.992V379H101.392V369.758H102.992V373.643H103.874L106.591 369.758H108.559L105.385 374.182L108.838 379H106.908L104.083 375.039ZM114.57 375.566V379H112.964V369.758H116.5C117.532 369.758 118.351 370.027 118.956 370.564C119.565 371.101 119.87 371.812 119.87 372.697C119.87 373.602 119.572 374.307 118.975 374.811C118.383 375.314 117.551 375.566 116.48 375.566H114.57ZM114.57 374.277H116.5C117.071 374.277 117.507 374.144 117.807 373.877C118.108 373.607 118.258 373.217 118.258 372.709C118.258 372.21 118.105 371.812 117.801 371.516C117.496 371.216 117.077 371.061 116.544 371.053H114.57V374.277ZM126.681 374.874H122.885V377.718H127.322V379H121.279V369.758H127.278V371.053H122.885V373.604H126.681V374.874ZM135.701 375.998C135.608 376.979 135.244 377.747 134.609 378.302C133.975 378.852 133.132 379.127 132.083 379.127C131.342 379.127 130.689 378.953 130.122 378.606C129.559 378.255 129.123 377.752 128.814 377.096C128.509 376.44 128.355 375.674 128.351 374.798V374.017C128.351 373.141 128.505 372.371 128.814 371.707C129.123 371.042 129.565 370.53 130.141 370.17C130.72 369.811 131.391 369.631 132.153 369.631C133.181 369.631 134.004 369.912 134.622 370.475C135.244 371.038 135.606 371.819 135.708 372.817H134.108C134.032 372.157 133.837 371.677 133.524 371.376C133.211 371.076 132.754 370.926 132.153 370.926C131.472 370.926 130.945 371.169 130.572 371.656C130.2 372.138 129.997 372.824 129.963 373.712H133.181V374.995H129.957C129.986 375.93 130.181 376.641 130.541 377.127C130.904 377.61 131.419 377.851 132.083 377.851C132.705 377.851 133.175 377.709 133.492 377.426C133.81 377.138 134.011 376.662 134.095 375.998H135.701ZM144.378 375.991C144.285 376.977 143.921 377.747 143.287 378.302C142.652 378.852 141.808 379.127 140.754 379.127C140.018 379.127 139.368 378.953 138.805 378.606C138.247 378.255 137.815 377.758 137.51 377.115C137.206 376.472 137.047 375.725 137.034 374.874V374.011C137.034 373.139 137.189 372.371 137.498 371.707C137.806 371.042 138.249 370.53 138.824 370.17C139.404 369.811 140.073 369.631 140.83 369.631C141.85 369.631 142.671 369.908 143.293 370.462C143.915 371.017 144.277 371.8 144.378 372.811H142.779C142.703 372.147 142.508 371.668 142.195 371.376C141.886 371.08 141.431 370.932 140.83 370.932C140.132 370.932 139.594 371.188 139.218 371.7C138.845 372.208 138.655 372.955 138.646 373.941V374.76C138.646 375.758 138.824 376.52 139.18 377.045C139.539 377.57 140.064 377.832 140.754 377.832C141.384 377.832 141.858 377.69 142.176 377.407C142.493 377.123 142.694 376.651 142.779 375.991H144.378ZM152.307 371.053H149.425V379H147.832V371.053H144.975V369.758H152.307V371.053ZM155.131 375.566V379H153.525V369.758H157.061C158.094 369.758 158.912 370.027 159.518 370.564C160.127 371.101 160.432 371.812 160.432 372.697C160.432 373.602 160.133 374.307 159.537 374.811C158.944 375.314 158.113 375.566 157.042 375.566H155.131ZM155.131 374.277H157.061C157.632 374.277 158.068 374.144 158.369 373.877C158.669 373.607 158.819 373.217 158.819 372.709C158.819 372.21 158.667 371.812 158.362 371.516C158.058 371.216 157.639 371.061 157.105 371.053H155.131V374.277ZM163.536 379H161.936V369.758H163.536V379ZM165.51 379V369.758H168.677C169.722 369.758 170.518 369.967 171.064 370.386C171.61 370.805 171.883 371.429 171.883 372.259C171.883 372.682 171.769 373.063 171.54 373.401C171.312 373.74 170.977 374.002 170.537 374.188C171.036 374.324 171.422 374.58 171.692 374.957C171.967 375.329 172.105 375.778 172.105 376.302C172.105 377.17 171.826 377.836 171.267 378.302C170.713 378.767 169.917 379 168.88 379H165.51ZM167.116 374.83V377.718H168.899C169.403 377.718 169.797 377.593 170.08 377.343C170.364 377.094 170.505 376.747 170.505 376.302C170.505 375.342 170.014 374.851 169.033 374.83H167.116ZM167.116 373.649H168.69C169.189 373.649 169.579 373.537 169.858 373.312C170.141 373.084 170.283 372.762 170.283 372.348C170.283 371.891 170.152 371.561 169.89 371.357C169.632 371.154 169.227 371.053 168.677 371.053H167.116V373.649Z" fill="#1A1A1A"/>
<path fill-rule="evenodd" clip-rule="evenodd" d="M19.0209 367H24.9689V373H19.0209V367ZM21 369V371H23V369H21ZM38 371V369H29V371H38ZM38 377V379H29V377H38ZM18 378.5L21.5897 382L26.8022 376.918L25.4291 375.435L21.5897 379.17L19.4462 377.09L18 378.5Z" fill="#757575"/>
<g filter="url(#filter2_i_31_4273)">
<rect y="402" width="240" height="56" fill="white"/>
</g>
<path d="M58.6343 435H57.0347V425.758H58.6343V435ZM67.9463 435H66.3467V430.893H62.2144V435H60.6084V425.758H62.2144V429.604H66.3467V425.758H67.9463V435ZM74.8906 426.634H75.0303C75.7412 426.634 76.3866 426.795 76.9663 427.116C77.5503 427.434 78.0031 427.882 78.3247 428.462C78.6506 429.042 78.8135 429.693 78.8135 430.417C78.8135 431.136 78.6506 431.784 78.3247 432.359C78.0031 432.931 77.5545 433.375 76.979 433.692C76.4077 434.01 75.7666 434.171 75.0557 434.175H74.8906V435.381H73.3481V434.175H73.1958C72.4806 434.175 71.8311 434.016 71.2471 433.699C70.6631 433.377 70.2103 432.931 69.8887 432.359C69.5713 431.788 69.4126 431.145 69.4126 430.43C69.4126 429.706 69.5734 429.054 69.895 428.475C70.2166 427.895 70.6673 427.444 71.2471 427.123C71.8268 426.797 72.4764 426.634 73.1958 426.634H73.3481V425.377H74.8906V426.634ZM73.1958 427.922C72.4849 427.922 71.9284 428.145 71.5264 428.589C71.1286 429.033 70.9297 429.647 70.9297 430.43C70.9297 431.191 71.1286 431.792 71.5264 432.232C71.9242 432.668 72.487 432.886 73.2148 432.886H73.3481V427.922H73.1958ZM74.8906 427.922V432.886H75.043C75.7539 432.886 76.3062 432.664 76.6997 432.22C77.0975 431.775 77.2964 431.174 77.2964 430.417C77.2964 429.643 77.0975 429.033 76.6997 428.589C76.3062 428.145 75.7476 427.922 75.0239 427.922H74.8906ZM87.5859 430.62C87.5859 431.526 87.4294 432.321 87.1162 433.007C86.8031 433.688 86.3545 434.213 85.7705 434.581C85.1908 434.945 84.5221 435.127 83.7646 435.127C83.0156 435.127 82.347 434.945 81.7588 434.581C81.1748 434.213 80.722 433.69 80.4004 433.013C80.083 432.336 79.9222 431.555 79.918 430.671V430.15C79.918 429.249 80.0767 428.453 80.394 427.764C80.7157 427.074 81.1663 426.547 81.7461 426.183C82.3301 425.815 82.9987 425.631 83.752 425.631C84.5052 425.631 85.1717 425.813 85.7515 426.177C86.3354 426.536 86.7861 427.057 87.1035 427.738C87.4209 428.415 87.5817 429.205 87.5859 430.106V430.62ZM85.98 430.138C85.98 429.114 85.7853 428.329 85.396 427.783C85.0109 427.237 84.4629 426.964 83.752 426.964C83.0579 426.964 82.5142 427.237 82.1206 427.783C81.7313 428.324 81.5324 429.092 81.5239 430.087V430.62C81.5239 431.636 81.7207 432.421 82.1143 432.975C82.512 433.529 83.0622 433.807 83.7646 433.807C84.4756 433.807 85.0215 433.536 85.4023 432.994C85.7874 432.452 85.98 431.661 85.98 430.62V430.138ZM90.7915 431.566V435H89.1855V425.758H92.7212C93.7537 425.758 94.5726 426.027 95.1777 426.564C95.7871 427.101 96.0918 427.812 96.0918 428.697C96.0918 429.602 95.7935 430.307 95.1968 430.811C94.6043 431.314 93.7728 431.566 92.7021 431.566H90.7915ZM90.7915 430.277H92.7212C93.2925 430.277 93.7284 430.144 94.0288 429.877C94.3293 429.607 94.4795 429.217 94.4795 428.709C94.4795 428.21 94.3271 427.812 94.0225 427.516C93.7178 427.216 93.2988 427.061 92.7656 427.053H90.7915V430.277ZM99.583 425.758L102.249 432.842L104.909 425.758H106.984V435H105.385V431.953L105.543 427.878L102.814 435H101.665L98.9419 427.884L99.1006 431.953V435H97.501V425.758H99.583ZM114.176 432.848H110.596L109.847 435H108.178L111.669 425.758H113.11L116.607 435H114.932L114.176 432.848ZM111.047 431.553H113.726L112.386 427.719L111.047 431.553ZM117.648 425.758H119.254V433.718H123.323V425.758H124.929V433.705H126.046L125.919 437.228H124.447V435H117.648V425.758ZM129.068 435H127.468V425.758H129.068V435ZM135.6 435V431.547H133.81L132.026 435H130.306L132.369 431.071C131.294 430.563 130.756 429.731 130.756 428.576C130.756 427.692 131.046 427.004 131.626 426.513C132.21 426.018 133.022 425.766 134.063 425.758H137.206V435H135.6ZM132.356 428.646C132.356 429.167 132.502 429.573 132.794 429.865C133.086 430.157 133.524 430.303 134.108 430.303H135.6V427.053H134.108C133.515 427.053 133.075 427.194 132.788 427.478C132.5 427.762 132.356 428.151 132.356 428.646Z" fill="#1A1A1A"/>
<path fill-rule="evenodd" clip-rule="evenodd" d="M18 430C18 424.477 22.4772 420 28 420C30.6522 420 33.1957 421.054 35.0711 422.929C36.9464 424.804 38 427.348 38 430C38 432.652 36.9464 435.196 35.0711 437.071C33.1957 438.946 30.6522 440 28 440C25.3478 440 22.8043 438.946 20.9289 437.071C19.0536 435.196 18 432.652 18 430ZM29 425V427H27V425H29ZM29 429V435H27V429H29Z" fill="#757575"/>
<g filter="url(#filter3_i_31_4273)">
<rect x="50" y="671" width="127" height="72" fill="white"/>
</g>
<defs>
<filter id="filter0_d_31_4273" x="-4" y="0" width="250" height="1110" filterUnits="userSpaceOnUse" color-interpolation-filters="sRGB">
<feFlood flood-opacity="0" result="BackgroundImageFix"/>
<feColorMatrix in="SourceAlpha" type="matrix" values="0 0 0 0 0 0 0 0 0 0 0 0 0 0 0 0 0 0 127 0" result="hardAlpha"/>
<feOffset dy="2"/>
<feGaussianBlur stdDeviation="2"/>
<feColorMatrix type="matrix" values="0 0 0 0 0 0 0 0 0 0 0 0 0 0 0 0 0 0 0.117839 0"/>
<feBlend mode="normal" in2="BackgroundImageFix" result="effect1_dropShadow_31_4273"/>
<feBlend mode="normal" in="SourceGraphic" in2="effect1_dropShadow_31_4273" result="shape"/>
</filter>
<filter id="filter1_ii_31_4273" x="0" y="2.00024" width="242" height="63.9998" filterUnits="userSpaceOnUse" color-interpolation-filters="sRGB">
<feFlood flood-opacity="0" result="BackgroundImageFix"/>
<feBlend mode="normal" in="SourceGraphic" in2="BackgroundImageFix" result="shape"/>
<feColorMatrix in="SourceAlpha" type="matrix" values="0 0 0 0 0 0 0 0 0 0 0 0 0 0 0 0 0 0 127 0" result="hardAlpha"/>
<feOffset dx="-4"/>
<feComposite in2="hardAlpha" operator="arithmetic" k2="-1" k3="1"/>
<feColorMatrix type="matrix" values="0 0 0 0 0.1875 0 0 0 0 0.75 0 0 0 0 0.375 0 0 0 1 0"/>
<feBlend mode="normal" in2="shape" result="effect1_innerShadow_31_4273"/>
<feColorMatrix in="SourceAlpha" type="matrix" values="0 0 0 0 0 0 0 0 0 0 0 0 0 0 0 0 0 0 127 0" result="hardAlpha"/>
<feOffset dy="-1"/>
<feComposite in2="hardAlpha" operator="arithmetic" k2="-1" k3="1"/>
<feColorMatrix type="matrix" values="0 0 0 0 0.899607 0 0 0 0 0.899607 0 0 0 0 0.899607 0 0 0 1 0"/>
<feBlend mode="normal" in2="effect1_innerShadow_31_4273" result="effect2_innerShadow_31_4273"/>
</filter>
<filter id="filter2_i_31_4273" x="0" y="402" width="240" height="56" filterUnits="userSpaceOnUse" color-interpolation-filters="sRGB">
<feFlood flood-opacity="0" result="BackgroundImageFix"/>
<feBlend mode="normal" in="SourceGraphic" in2="BackgroundImageFix" result="shape"/>
<feColorMatrix in="SourceAlpha" type="matrix" values="0 0 0 0 0 0 0 0 0 0 0 0 0 0 0 0 0 0 127 0" result="hardAlpha"/>
<feOffset dy="1"/>
<feComposite in2="hardAlpha" operator="arithmetic" k2="-1" k3="1"/>
<feColorMatrix type="matrix" values="0 0 0 0 0.899607 0 0 0 0 0.899607 0 0 0 0 0.899607 0 0 0 1 0"/>
<feBlend mode="normal" in2="shape" result="effect1_innerShadow_31_4273"/>
</filter>
<filter id="filter3_i_31_4273" x="50" y="671" width="127" height="72" filterUnits="userSpaceOnUse" color-interpolation-filters="sRGB">
<feFlood flood-opacity="0" result="BackgroundImageFix"/>
<feBlend mode="normal" in="SourceGraphic" in2="BackgroundImageFix" result="shape"/>
<feColorMatrix in="SourceAlpha" type="matrix" values="0 0 0 0 0 0 0 0 0 0 0 0 0 0 0 0 0 0 127 0" result="hardAlpha"/>
<feOffset dy="-1"/>
<feComposite in2="hardAlpha" operator="arithmetic" k2="-1" k3="1"/>
<feColorMatrix type="matrix" values="0 0 0 0 0.899607 0 0 0 0 0.899607 0 0 0 0 0.899607 0 0 0 1 0"/>
<feBlend mode="normal" in2="shape" result="effect1_innerShadow_31_4273"/>
</filter>
</defs>
</svg>
